<?xml version="1.0" encoding="UTF-8"?>
<!DOCTYPE svg PUBLIC "-//W3C//DTD SVG 1.1//EN" "http://www.w3.org/Graphics/SVG/1.1/DTD/svg11.dtd">
<svg xmlns="http://www.w3.org/2000/svg" version="1.1" width="800px" height="800px" style="shape-rendering:geometricPrecision; text-rendering:geometricPrecision; image-rendering:optimizeQuality; fill-rule:evenodd; clip-rule:evenodd" xmlns:xlink="http://www.w3.org/1999/xlink">
<g><path style="opacity:0.286" fill="#fecabe" d="M 427.5,24.5 C 425.833,24.5 424.167,24.5 422.5,24.5C 401.821,24.3269 381.155,24.6603 360.5,25.5C 373.296,23.9626 386.296,23.2959 399.5,23.5C 409.006,23.5002 418.339,23.8335 427.5,24.5 Z"/></g>
<g><path style="opacity:0.412" fill="#f2b19f" d="M 422.5,24.5 C 424.167,24.5 425.833,24.5 427.5,24.5C 436.737,24.6147 445.737,25.6147 454.5,27.5C 453.167,27.5 451.833,27.5 450.5,27.5C 446.143,27.4135 441.81,27.0802 437.5,26.5C 432.5,25.8333 427.5,25.1667 422.5,24.5 Z"/></g>
<g><path style="opacity:1" fill="#df5540" d="M 422.5,24.5 C 427.5,25.1667 432.5,25.8333 437.5,26.5C 407.117,25.976 376.784,26.6427 346.5,28.5C 350.851,27.5924 355.184,26.5924 359.5,25.5C 359.833,25.5 360.167,25.5 360.5,25.5C 381.155,24.6603 401.821,24.3269 422.5,24.5 Z"/></g>
<g><path style="opacity:1" fill="#ee472d" d="M 437.5,26.5 C 441.81,27.0802 446.143,27.4135 450.5,27.5C 450.842,28.3382 451.508,28.6716 452.5,28.5C 452.918,29.2216 453.584,29.7216 454.5,30C 464.493,31.61 474.493,33.11 484.5,34.5C 486.167,34.5 487.833,34.5 489.5,34.5C 493.098,36.6918 497.098,37.6918 501.5,37.5C 505.378,40.0129 509.711,41.3462 514.5,41.5C 514.833,41.5 515.167,41.5 515.5,41.5C 525.422,46.2572 535.755,50.2572 546.5,53.5C 548.32,55.4484 550.654,56.4484 553.5,56.5C 554.492,56.3284 555.158,56.6618 555.5,57.5C 556.833,58.5 558.167,59.5 559.5,60.5C 560.574,61.8846 561.907,63.0513 563.5,64C 567.53,65.6185 571.53,67.1185 575.5,68.5C 575.414,69.4959 575.748,70.3292 576.5,71C 579.168,72.2895 581.835,73.4561 584.5,74.5C 584.67,75.8221 584.337,76.9887 583.5,78C 587.191,78.4196 590.858,78.9196 594.5,79.5C 596.687,80.758 599.02,81.758 601.5,82.5C 602.492,82.3284 603.158,82.6618 603.5,83.5C 604.035,85.4456 605.368,86.4456 607.5,86.5C 608.492,86.3284 609.158,86.6618 609.5,87.5C 610.035,89.4456 611.368,90.4456 613.5,90.5C 613.973,91.9063 614.973,92.573 616.5,92.5C 617.326,94.2644 618.659,95.5977 620.5,96.5C 622.066,98.6247 623.4,100.958 624.5,103.5C 627.057,102.466 628.391,103.466 628.5,106.5C 630.565,106.517 632.565,106.85 634.5,107.5C 634.5,109.167 634.5,110.833 634.5,112.5C 636.199,112.34 637.866,112.506 639.5,113C 640.889,115.188 642.889,116.354 645.5,116.5C 646.922,117.925 648.589,118.925 650.5,119.5C 650.525,122.179 651.858,123.512 654.5,123.5C 654.833,123.5 655.167,123.5 655.5,123.5C 655.833,125.833 657.167,127.167 659.5,127.5C 663.772,133.11 668.438,138.443 673.5,143.5C 674.3,145.573 675.633,147.24 677.5,148.5C 680.008,151.849 682.341,155.349 684.5,159C 684.167,159.333 683.833,159.667 683.5,160C 684.448,160.483 685.448,160.649 686.5,160.5C 686.5,161.833 686.5,163.167 686.5,164.5C 687.833,164.5 689.167,164.5 690.5,164.5C 690.421,165.93 690.754,167.264 691.5,168.5C 693.784,169.458 695.784,170.792 697.5,172.5C 698.056,176.289 700.056,178.955 703.5,180.5C 704.5,181.167 705.5,181.833 706.5,182.5C 706.427,184.027 707.094,185.027 708.5,185.5C 708.427,187.027 709.094,188.027 710.5,188.5C 710.427,190.027 711.094,191.027 712.5,191.5C 712.427,193.027 713.094,194.027 714.5,194.5C 714.427,196.027 715.094,197.027 716.5,197.5C 716.427,199.027 717.094,200.027 718.5,200.5C 718.427,202.027 719.094,203.027 720.5,203.5C 721.338,203.842 721.672,204.508 721.5,205.5C 721.427,207.027 722.094,208.027 723.5,208.5C 724.674,209.514 725.34,210.847 725.5,212.5C 725.5,213.167 725.5,213.833 725.5,214.5C 726.913,219.918 729.246,224.918 732.5,229.5C 731.294,231.516 731.294,233.516 732.5,235.5C 733.251,234.624 733.751,233.624 734,232.5C 734.71,233.973 735.876,234.64 737.5,234.5C 738.674,235.514 739.34,236.847 739.5,238.5C 739.166,241.491 740.166,243.824 742.5,245.5C 743.338,245.842 743.672,246.508 743.5,247.5C 743.502,251.165 744.835,254.165 747.5,256.5C 748.404,257.209 748.737,258.209 748.5,259.5C 749.199,264.272 750.866,268.605 753.5,272.5C 754.293,276.88 755.293,281.214 756.5,285.5C 757.313,289.809 758.147,294.143 759,298.5C 760.356,302.295 761.856,305.962 763.5,309.5C 764.26,317.256 765.427,324.923 767,332.5C 767.278,333.416 767.778,334.082 768.5,334.5C 769.709,338.618 770.376,342.951 770.5,347.5C 773.038,371.091 774.038,394.758 773.5,418.5C 773.5,421.5 773.5,424.5 773.5,427.5C 772.995,435.185 772.328,442.851 771.5,450.5C 770.076,452.515 769.41,454.848 769.5,457.5C 768.893,466.494 767.226,475.161 764.5,483.5C 762.898,487.239 761.898,491.239 761.5,495.5C 761.5,497.5 761.5,499.5 761.5,501.5C 759.44,505.349 757.773,509.349 756.5,513.5C 755.883,513.611 755.383,513.944 755,514.5C 753.85,518.112 753.017,521.778 752.5,525.5C 752.672,526.492 752.338,527.158 751.5,527.5C 750.466,528.687 749.133,529.52 747.5,530C 748.081,530.893 748.415,531.893 748.5,533C 747.053,536.388 746.053,539.888 745.5,543.5C 745.5,544.5 745.5,545.5 745.5,546.5C 743.787,547.635 743.12,549.302 743.5,551.5C 742.272,552.306 741.272,553.306 740.5,554.5C 738.742,558.662 736.409,562.662 733.5,566.5C 732.451,569.08 731.784,571.746 731.5,574.5C 730.058,575.82 729.392,577.486 729.5,579.5C 727.896,580.287 727.229,581.62 727.5,583.5C 726.094,583.973 725.427,584.973 725.5,586.5C 725.34,588.153 724.674,589.486 723.5,590.5C 722.094,590.973 721.427,591.973 721.5,593.5C 721.672,594.492 721.338,595.158 720.5,595.5C 718.367,597.091 716.701,599.091 715.5,601.5C 714.5,602.5 713.5,603.5 712.5,604.5C 710.055,606.086 708.555,608.419 708,611.5C 707.667,610.833 707.333,610.167 707,609.5C 706.667,610.833 706.333,612.167 706,613.5C 705.333,612.167 704.667,612.167 704,613.5C 703.506,615.134 703.34,616.801 703.5,618.5C 702.833,618.5 702.5,618.833 702.5,619.5C 700.451,621.418 698.117,622.918 695.5,624C 696.833,625.84 696.666,626.34 695,625.5C 694.667,626.5 694.333,627.5 694,628.5C 693.086,627.346 692.253,627.513 691.5,629C 692.022,629.561 692.355,630.228 692.5,631C 691.293,632.3 690.626,633.8 690.5,635.5C 689.5,635.5 688.5,635.5 687.5,635.5C 687.5,636.833 687.5,638.167 687.5,639.5C 685.748,641.246 684.415,643.246 683.5,645.5C 680.757,647.239 678.757,649.573 677.5,652.5C 677.5,653.167 677.167,653.5 676.5,653.5C 675.5,653.833 674.833,654.5 674.5,655.5C 673.5,656.167 672.5,656.833 671.5,657.5C 670.5,657.5 669.5,657.5 668.5,657.5C 668.649,656.448 668.483,655.448 668,654.5C 667.505,656.473 667.338,658.473 667.5,660.5C 666.07,660.421 664.736,660.754 663.5,661.5C 662.668,664.235 661.668,666.235 660.5,667.5C 659.5,667.5 658.5,667.5 657.5,667.5C 657.5,668.833 657.5,670.167 657.5,671.5C 655.883,672.038 654.216,672.371 652.5,672.5C 652.5,674.167 652.5,675.833 652.5,677.5C 652.167,678.5 651.5,679.167 650.5,679.5C 648.251,680.08 646.585,681.413 645.5,683.5C 643.246,684.415 641.246,685.748 639.5,687.5C 638.167,687.5 636.833,687.5 635.5,687.5C 635.5,688.833 635.5,690.167 635.5,691.5C 634.5,691.833 633.833,692.5 633.5,693.5C 631.938,693.733 630.605,694.4 629.5,695.5C 627.277,694.886 625.611,693.552 624.5,691.5C 621.753,693.222 618.753,694.389 615.5,695C 614.707,696.085 614.04,697.252 613.5,698.5C 612.277,699.614 610.944,699.781 609.5,699C 608.549,698.282 608.383,697.449 609,696.5C 611.179,695.884 613.012,694.717 614.5,693C 613.577,690.959 613.244,688.792 613.5,686.5C 611.076,686.192 608.743,686.526 606.5,687.5C 610.021,688.15 611.021,689.983 609.5,693C 608.552,693.483 607.552,693.649 606.5,693.5C 606.665,697.182 606.499,700.848 606,704.5C 604.266,705.249 602.433,705.749 600.5,706C 601.5,707 602.5,708 603.5,709C 601.158,710.171 598.824,711.338 596.5,712.5C 597.833,713.167 599.167,713.833 600.5,714.5C 597.553,715.321 594.553,715.821 591.5,716C 592.624,716.249 593.624,716.749 594.5,717.5C 593.349,718.731 592.183,718.731 591,717.5C 590.805,718.819 590.972,720.153 591.5,721.5C 591.167,722.167 590.833,722.833 590.5,723.5C 590.158,724.338 589.492,724.672 588.5,724.5C 587.041,724.433 585.708,724.766 584.5,725.5C 577.532,727.731 570.699,730.397 564,733.5C 563.5,733.167 563,732.833 562.5,732.5C 564.434,729.01 563.101,727.01 558.5,726.5C 558.5,729.167 558.5,731.833 558.5,734.5C 557.127,734.343 555.793,734.51 554.5,735C 555.308,735.308 555.975,735.808 556.5,736.5C 554.867,738.503 552.867,739.836 550.5,740.5C 550.5,739.5 550.5,738.5 550.5,737.5C 548.712,737.215 547.045,737.548 545.5,738.5C 546.981,739.48 548.315,740.647 549.5,742C 547.579,742.36 545.912,743.194 544.5,744.5C 541.423,743.123 538.423,743.29 535.5,745C 536.167,745.333 536.833,745.667 537.5,746C 536.619,746.708 535.953,747.542 535.5,748.5C 528.582,751.695 521.582,754.695 514.5,757.5C 508.158,758.837 501.825,760.171 495.5,761.5C 490.331,761.703 485.331,762.703 480.5,764.5C 477.449,762.626 475.449,763.293 474.5,766.5C 465.631,768.701 456.631,770.368 447.5,771.5C 443.5,771.833 439.5,772.167 435.5,772.5C 406.121,773.007 376.787,772.34 347.5,770.5C 343.5,770.167 339.5,769.833 335.5,769.5C 335.389,768.883 335.056,768.383 334.5,768C 330.23,766.925 325.897,766.425 321.5,766.5C 318.904,765.735 316.237,765.401 313.5,765.5C 310.572,765.435 307.905,764.768 305.5,763.5C 305.423,762.25 304.756,761.417 303.5,761C 300.883,760.178 298.216,759.678 295.5,759.5C 292.833,759.167 290.167,758.833 287.5,758.5C 284.739,756.795 281.739,755.462 278.5,754.5C 277.859,753.518 277.193,752.518 276.5,751.5C 271.217,750.285 266.217,748.452 261.5,746C 267.516,745.342 268.183,744.175 263.5,742.5C 261.009,744.058 258.343,745.058 255.5,745.5C 252.341,743.92 249.007,742.92 245.5,742.5C 244.508,742.672 243.842,742.338 243.5,741.5C 242.365,739.787 240.698,739.12 238.5,739.5C 237.817,737.824 236.483,737.157 234.5,737.5C 233.508,737.672 232.842,737.338 232.5,736.5C 232.33,735.178 232.663,734.011 233.5,733C 230.522,732.304 227.522,731.804 224.5,731.5C 223.609,730.89 222.609,730.557 221.5,730.5C 219.181,730.008 217.181,729.008 215.5,727.5C 215.027,726.094 214.027,725.427 212.5,725.5C 210.847,725.34 209.514,724.674 208.5,723.5C 208.027,722.094 207.027,721.427 205.5,721.5C 205.027,720.094 204.027,719.427 202.5,719.5C 201.508,719.672 200.842,719.338 200.5,718.5C 200.027,717.094 199.027,716.427 197.5,716.5C 197.027,715.094 196.027,714.427 194.5,714.5C 194.027,713.094 193.027,712.427 191.5,712.5C 191.027,711.094 190.027,710.427 188.5,710.5C 188.027,709.094 187.027,708.427 185.5,708.5C 184.738,706.738 183.404,705.738 181.5,705.5C 181.027,704.094 180.027,703.427 178.5,703.5C 177.738,701.738 176.404,700.738 174.5,700.5C 173.738,698.738 172.404,697.738 170.5,697.5C 169.415,695.413 167.749,694.08 165.5,693.5C 164.415,691.413 162.749,690.08 160.5,689.5C 158.761,686.757 156.427,684.757 153.5,683.5C 151.1,680.097 148.1,677.43 144.5,675.5C 140.773,670.77 136.44,666.77 131.5,663.5C 129.909,660.569 127.909,657.902 125.5,655.5C 124.427,652.764 122.427,651.097 119.5,650.5C 118.92,648.251 117.587,646.585 115.5,645.5C 115.512,642.858 114.179,641.525 111.5,641.5C 111.573,639.973 110.906,638.973 109.5,638.5C 108.5,638.167 107.833,637.5 107.5,636.5C 107.5,635.167 106.833,634.5 105.5,634.5C 105.5,634.167 105.5,633.833 105.5,633.5C 105.5,632.167 104.833,631.5 103.5,631.5C 103.5,630.167 102.833,629.5 101.5,629.5C 101.5,629.167 101.5,628.833 101.5,628.5C 100.833,626.833 100.167,625.167 99.5,623.5C 98.1294,621.071 96.6294,618.737 95,616.5C 93.6003,615.252 92.1003,614.252 90.5,613.5C 90.4456,611.368 89.4456,610.035 87.5,609.5C 86.6618,609.158 86.3284,608.492 86.5,607.5C 86.1667,606.167 85.8333,604.833 85.5,603.5C 83.6469,600.792 82.6469,597.792 82.5,594.5C 81.5,594.5 80.5,594.5 79.5,594.5C 78.9552,591.187 78.4552,587.854 78,584.5C 76.6439,585.38 75.1439,585.714 73.5,585.5C 73.5,585.167 73.5,584.833 73.5,584.5C 71.102,578.973 69.102,573.306 67.5,567.5C 65.8007,567.473 64.4674,566.806 63.5,565.5C 63.0075,563.181 62.0075,561.181 60.5,559.5C 59.8333,558.833 59.1667,558.167 58.5,557.5C 58.539,554.911 57.539,552.911 55.5,551.5C 55.8799,549.302 55.2132,547.635 53.5,546.5C 53.5979,544.447 52.9313,542.78 51.5,541.5C 50.6618,541.158 50.3284,540.492 50.5,539.5C 47.8396,530.517 45.173,521.517 42.5,512.5C 41.4987,505.125 39.4987,498.125 36.5,491.5C 35.2323,486.697 33.5656,482.031 31.5,477.5C 31.5,477.167 31.5,476.833 31.5,476.5C 30.7263,466.751 29.393,457.085 27.5,447.5C 27.8023,443.21 27.1357,439.21 25.5,435.5C 25.5,410.833 25.5,386.167 25.5,361.5C 26.2216,361.082 26.7216,360.416 27,359.5C 28.8384,344.105 31.8384,329.105 36,314.5C 36.499,310.179 36.6657,305.846 36.5,301.5C 38.2766,298.495 39.2766,295.162 39.5,291.5C 42.4111,284.767 44.7444,277.767 46.5,270.5C 50.0743,262.977 53.5743,255.311 57,247.5C 58.4301,244.647 59.2634,241.647 59.5,238.5C 60.5,238.5 61.5,238.5 62.5,238.5C 62.5172,236.435 62.8505,234.435 63.5,232.5C 63.8333,232.5 64.1667,232.5 64.5,232.5C 67.2302,229.369 69.2302,225.702 70.5,221.5C 71.1556,219.547 71.4889,217.547 71.5,215.5C 72.9063,215.027 73.573,214.027 73.5,212.5C 73.6596,210.847 74.3263,209.514 75.5,208.5C 76.9063,208.027 77.573,207.027 77.5,205.5C 78.9063,205.027 79.573,204.027 79.5,202.5C 79.3284,201.508 79.6618,200.842 80.5,200.5C 81.9063,200.027 82.573,199.027 82.5,197.5C 83.9063,197.027 84.573,196.027 84.5,194.5C 85.9063,194.027 86.573,193.027 86.5,191.5C 87.9063,191.027 88.573,190.027 88.5,188.5C 89.9063,188.027 90.573,187.027 90.5,185.5C 92.9,183.704 94.5667,181.37 95.5,178.5C 97.2624,177.738 98.2624,176.404 98.5,174.5C 100.262,173.738 101.262,172.404 101.5,170.5C 103.587,169.415 104.92,167.749 105.5,165.5C 107.914,164.089 109.581,162.089 110.5,159.5C 115.533,154.468 120.199,149.135 124.5,143.5C 126.5,141.833 128.5,140.167 130.5,138.5C 135.833,135.167 140.167,130.833 143.5,125.5C 143.5,125.167 143.5,124.833 143.5,124.5C 149.469,119.865 155.136,114.865 160.5,109.5C 162.749,108.92 164.415,107.587 165.5,105.5C 167.749,104.92 169.415,103.587 170.5,101.5C 172.404,101.262 173.738,100.262 174.5,98.5C 177.37,97.5667 179.704,95.9 181.5,93.5C 183.404,93.2624 184.738,92.2624 185.5,90.5C 188.198,90.1551 190.198,88.8218 191.5,86.5C 193.027,86.573 194.027,85.9063 194.5,84.5C 196.027,84.573 197.027,83.9063 197.5,82.5C 200.751,81.5462 203.418,79.8796 205.5,77.5C 206.167,77.5 206.833,77.5 207.5,77.5C 209.795,76.8645 211.461,75.5311 212.5,73.5C 213.167,73.5 213.833,73.5 214.5,73.5C 217.335,71.9183 220.335,70.585 223.5,69.5C 223.863,68.8165 224.196,68.1499 224.5,67.5C 225.5,67.1667 226.167,66.5 226.5,65.5C 228.483,65.8432 229.817,65.1765 230.5,63.5C 233.393,63.9689 235.393,62.9689 236.5,60.5C 236.842,59.6618 237.508,59.3284 238.5,59.5C 241.491,59.8337 243.824,58.8337 245.5,56.5C 249.165,56.4982 252.165,55.1648 254.5,52.5C 257.491,52.8337 259.824,51.8337 261.5,49.5C 270.483,46.8396 279.483,44.173 288.5,41.5C 291.002,41.2505 293.502,40.9172 296,40.5C 302.186,38.7884 308.019,36.7884 313.5,34.5C 316.397,34.3187 319.23,34.6521 322,35.5C 329.293,31.6392 337.127,29.8059 345.5,30C 346.056,29.6174 346.389,29.1174 346.5,28.5C 376.784,26.6427 407.117,25.976 437.5,26.5 Z"/></g>
<g><path style="opacity:0.651" fill="#ee8375" d="M 450.5,27.5 C 451.833,27.5 453.167,27.5 454.5,27.5C 455.5,27.5 456.5,27.5 457.5,27.5C 457.833,28.1667 458.167,28.8333 458.5,29.5C 456.565,28.8505 454.565,28.5172 452.5,28.5C 451.508,28.6716 450.842,28.3382 450.5,27.5 Z"/></g>
<g><path style="opacity:0.784" fill="#f2a496" d="M 359.5,25.5 C 355.184,26.5924 350.851,27.5924 346.5,28.5C 341.848,28.9981 337.181,29.3314 332.5,29.5C 341.235,27.2515 350.235,25.9182 359.5,25.5 Z"/></g>
<g><path style="opacity:0.71" fill="#f4aca0" d="M 457.5,27.5 C 464.056,28.3432 470.389,29.6766 476.5,31.5C 470.5,30.8333 464.5,30.1667 458.5,29.5C 458.167,28.8333 457.833,28.1667 457.5,27.5 Z"/></g>
<g><path style="opacity:1" fill="#e2553e" d="M 452.5,28.5 C 454.565,28.5172 456.565,28.8505 458.5,29.5C 464.5,30.1667 470.5,30.8333 476.5,31.5C 476.833,31.5 477.167,31.5 477.5,31.5C 479.691,32.8686 482.025,33.8686 484.5,34.5C 474.493,33.11 464.493,31.61 454.5,30C 453.584,29.7216 452.918,29.2216 452.5,28.5 Z"/></g>
<g><path style="opacity:1" fill="#ec7058" d="M 346.5,28.5 C 346.389,29.1174 346.056,29.6174 345.5,30C 337.127,29.8059 329.293,31.6392 322,35.5C 319.23,34.6521 316.397,34.3187 313.5,34.5C 312.167,34.5 310.833,34.5 309.5,34.5C 316.86,31.9593 324.527,30.2926 332.5,29.5C 337.181,29.3314 341.848,28.9981 346.5,28.5 Z"/></g>
<g><path style="opacity:0.427" fill="#fab4a9" d="M 477.5,31.5 C 481.761,31.8984 485.761,32.8984 489.5,34.5C 487.833,34.5 486.167,34.5 484.5,34.5C 482.025,33.8686 479.691,32.8686 477.5,31.5 Z"/></g>
<g><path style="opacity:0.478" fill="#f6aca3" d="M 489.5,34.5 C 493.761,34.8984 497.761,35.8984 501.5,37.5C 497.098,37.6918 493.098,36.6918 489.5,34.5 Z"/></g>
<g><path style="opacity:0.588" fill="#f7a79a" d="M 305.5,35.5 C 302.191,37.3699 298.525,38.3699 294.5,38.5C 297.854,36.7424 301.521,35.7424 305.5,35.5 Z"/></g>
<g><path style="opacity:1" fill="#e75a45" d="M 309.5,34.5 C 310.833,34.5 312.167,34.5 313.5,34.5C 308.019,36.7884 302.186,38.7884 296,40.5C 293.502,40.9172 291.002,41.2505 288.5,41.5C 290.5,40.5 292.5,39.5 294.5,38.5C 298.525,38.3699 302.191,37.3699 305.5,35.5C 306.568,34.5655 307.901,34.2322 309.5,34.5 Z"/></g>
<g><path style="opacity:0.573" fill="#f2ad9a" d="M 501.5,37.5 C 506.165,38.0777 510.499,39.4111 514.5,41.5C 509.711,41.3462 505.378,40.0129 501.5,37.5 Z"/></g>
<g><path style="opacity:0.545" fill="#f7b5a8" d="M 515.5,41.5 C 526.223,44.7367 536.557,48.7367 546.5,53.5C 535.755,50.2572 525.422,46.2572 515.5,41.5 Z"/></g>
<g><path style="opacity:0.824" fill="#f1a496" d="M 294.5,38.5 C 292.5,39.5 290.5,40.5 288.5,41.5C 279.483,44.173 270.483,46.8396 261.5,49.5C 272.086,44.8603 283.086,41.1937 294.5,38.5 Z"/></g>
<g><path style="opacity:0.812" fill="#f3a090" d="M 261.5,49.5 C 259.824,51.8337 257.491,52.8337 254.5,52.5C 256.509,50.9348 258.843,49.9348 261.5,49.5 Z"/></g>
<g><path style="opacity:0.863" fill="#ee9383" d="M 254.5,52.5 C 252.165,55.1648 249.165,56.4982 245.5,56.5C 248.088,54.4082 251.088,53.0749 254.5,52.5 Z"/></g>
<g><path style="opacity:0.427" fill="#f7af9e" d="M 546.5,53.5 C 549.241,53.7073 551.574,54.7073 553.5,56.5C 550.654,56.4484 548.32,55.4484 546.5,53.5 Z"/></g>
<g><path style="opacity:0.855" fill="#ed9e8c" d="M 245.5,56.5 C 243.824,58.8337 241.491,59.8337 238.5,59.5C 240.509,57.9348 242.843,56.9348 245.5,56.5 Z"/></g>
<g><path style="opacity:0.31" fill="#fcc8b8" d="M 555.5,57.5 C 558.241,57.7073 560.574,58.7073 562.5,60.5C 561.5,60.5 560.5,60.5 559.5,60.5C 558.167,59.5 556.833,58.5 555.5,57.5 Z"/></g>
<g><path style="opacity:0.91" fill="#f29e8d" d="M 236.5,60.5 C 235.393,62.9689 233.393,63.9689 230.5,63.5C 232.181,61.9925 234.181,60.9925 236.5,60.5 Z"/></g>
<g><path style="opacity:0.376" fill="#fdbfb2" d="M 564.5,61.5 C 566.153,61.6596 567.486,62.3263 568.5,63.5C 566.62,63.7709 565.287,63.1042 564.5,61.5 Z"/></g>
<g><path style="opacity:1" fill="#ec6f5c" d="M 559.5,60.5 C 560.5,60.5 561.5,60.5 562.5,60.5C 563.492,60.3284 564.158,60.6618 564.5,61.5C 565.287,63.1042 566.62,63.7709 568.5,63.5C 570.153,63.6596 571.486,64.3263 572.5,65.5C 573.306,66.7281 574.306,67.7281 575.5,68.5C 571.53,67.1185 567.53,65.6185 563.5,64C 561.907,63.0513 560.574,61.8846 559.5,60.5 Z"/></g>
<g><path style="opacity:0.914" fill="#f09c8c" d="M 230.5,63.5 C 229.817,65.1765 228.483,65.8432 226.5,65.5C 227.514,64.3263 228.847,63.6596 230.5,63.5 Z"/></g>
<g><path style="opacity:0.651" fill="#f6ae9e" d="M 226.5,65.5 C 226.167,66.5 225.5,67.1667 224.5,67.5C 224.167,67.5 223.833,67.5 223.5,67.5C 223.973,66.0937 224.973,65.427 226.5,65.5 Z"/></g>
<g><path style="opacity:0.306" fill="#fbc8be" d="M 572.5,65.5 C 574.674,65.7497 576.341,66.7497 577.5,68.5C 576.833,68.5 576.167,68.5 575.5,68.5C 574.306,67.7281 573.306,66.7281 572.5,65.5 Z"/></g>
<g><path style="opacity:0.561" fill="#f9bab2" d="M 222.5,67.5 C 222.027,68.9063 221.027,69.573 219.5,69.5C 219.973,68.0937 220.973,67.427 222.5,67.5 Z"/></g>
<g><path style="opacity:0.404" fill="#f4b9a9" d="M 579.5,69.5 C 581.153,69.6596 582.486,70.3263 583.5,71.5C 581.62,71.7709 580.287,71.1042 579.5,69.5 Z"/></g>
<g><path style="opacity:0.616" fill="#fab5a1" d="M 215.5,71.5 C 215.167,72.1667 214.833,72.8333 214.5,73.5C 213.833,73.5 213.167,73.5 212.5,73.5C 212.973,72.0937 213.973,71.427 215.5,71.5 Z"/></g>
<g><path style="opacity:1" fill="#e56a55" d="M 222.5,67.5 C 222.833,67.5 223.167,67.5 223.5,67.5C 223.833,67.5 224.167,67.5 224.5,67.5C 224.196,68.1499 223.863,68.8165 223.5,69.5C 220.335,70.585 217.335,71.9183 214.5,73.5C 214.833,72.8333 215.167,72.1667 215.5,71.5C 216.514,70.3263 217.847,69.6596 219.5,69.5C 221.027,69.573 222.027,68.9063 222.5,67.5 Z"/></g>
<g><path style="opacity:0.588" fill="#f8be9d" d="M 584.5,71.5 C 585.5,71.8333 586.167,72.5 586.5,73.5C 585.167,73.5 584.5,72.8333 584.5,71.5 Z"/></g>
<g><path style="opacity:0.561" fill="#f8bfaa" d="M 208.5,75.5 C 208.167,76.1667 207.833,76.8333 207.5,77.5C 206.833,77.5 206.167,77.5 205.5,77.5C 205.973,76.0937 206.973,75.427 208.5,75.5 Z"/></g>
<g><path style="opacity:1" fill="#e0735a" d="M 212.5,73.5 C 211.461,75.5311 209.795,76.8645 207.5,77.5C 207.833,76.8333 208.167,76.1667 208.5,75.5C 209.514,74.3263 210.847,73.6596 212.5,73.5 Z"/></g>
<g><path style="opacity:1" fill="#ea6147" d="M 575.5,68.5 C 576.167,68.5 576.833,68.5 577.5,68.5C 578.492,68.3284 579.158,68.6618 579.5,69.5C 580.287,71.1042 581.62,71.7709 583.5,71.5C 583.833,71.5 584.167,71.5 584.5,71.5C 584.5,72.8333 585.167,73.5 586.5,73.5C 588.153,73.6596 589.486,74.3263 590.5,75.5C 591.37,77.2737 592.703,78.607 594.5,79.5C 590.858,78.9196 587.191,78.4196 583.5,78C 584.337,76.9887 584.67,75.8221 584.5,74.5C 581.835,73.4561 579.168,72.2895 576.5,71C 575.748,70.3292 575.414,69.4959 575.5,68.5 Z"/></g>
<g><path style="opacity:0.875" fill="#f7b1a1" d="M 590.5,75.5 C 594.711,77.0983 598.378,79.4316 601.5,82.5C 599.02,81.758 596.687,80.758 594.5,79.5C 592.703,78.607 591.37,77.2737 590.5,75.5 Z"/></g>
<g><path style="opacity:0.545" fill="#f6a89c" d="M 205.5,77.5 C 203.418,79.8796 200.751,81.5462 197.5,82.5C 199.629,80.0499 202.296,78.3833 205.5,77.5 Z"/></g>
<g><path style="opacity:0.655" fill="#f3ad9c" d="M 197.5,82.5 C 197.027,83.9063 196.027,84.573 194.5,84.5C 194.973,83.0937 195.973,82.427 197.5,82.5 Z"/></g>
<g><path style="opacity:0.859" fill="#f4a496" d="M 603.5,83.5 C 605.23,84.0256 606.564,85.0256 607.5,86.5C 605.368,86.4456 604.035,85.4456 603.5,83.5 Z"/></g>
<g><path style="opacity:0.675" fill="#f8a696" d="M 194.5,84.5 C 194.027,85.9063 193.027,86.573 191.5,86.5C 191.973,85.0937 192.973,84.427 194.5,84.5 Z"/></g>
<g><path style="opacity:0.855" fill="#f3a795" d="M 609.5,87.5 C 611.23,88.0256 612.564,89.0256 613.5,90.5C 611.368,90.4456 610.035,89.4456 609.5,87.5 Z"/></g>
<g><path style="opacity:0.635" fill="#f4a695" d="M 191.5,86.5 C 190.198,88.8218 188.198,90.1551 185.5,90.5C 187.147,88.6736 189.147,87.3403 191.5,86.5 Z"/></g>
<g><path style="opacity:0.616" fill="#f6a897" d="M 185.5,90.5 C 184.738,92.2624 183.404,93.2624 181.5,93.5C 182.262,91.7376 183.596,90.7376 185.5,90.5 Z"/></g>
<g><path style="opacity:0.165" fill="#fdc9b4" d="M 613.5,90.5 C 615.027,90.427 616.027,91.0937 616.5,92.5C 614.973,92.573 613.973,91.9063 613.5,90.5 Z"/></g>
<g><path style="opacity:0.882" fill="#f0a393" d="M 616.5,92.5 C 619.135,93.8109 621.469,95.4776 623.5,97.5C 622.391,97.4431 621.391,97.1098 620.5,96.5C 618.659,95.5977 617.326,94.2644 616.5,92.5 Z"/></g>
<g><path style="opacity:0.576" fill="#f2a999" d="M 181.5,93.5 C 179.704,95.9 177.37,97.5667 174.5,98.5C 176.296,96.1 178.63,94.4333 181.5,93.5 Z"/></g>
<g><path style="opacity:0.576" fill="#f3ae9e" d="M 174.5,98.5 C 173.738,100.262 172.404,101.262 170.5,101.5C 171.262,99.7376 172.596,98.7376 174.5,98.5 Z"/></g>
<g><path style="opacity:0.588" fill="#f2ad9d" d="M 623.5,97.5 C 625.754,98.1237 627.421,99.457 628.5,101.5C 626.205,100.864 624.539,99.5311 623.5,97.5 Z"/></g>
<g><path style="opacity:1" fill="#e55340" d="M 620.5,96.5 C 621.391,97.1098 622.391,97.4431 623.5,97.5C 624.539,99.5311 626.205,100.864 628.5,101.5C 628.833,101.5 629.167,101.5 629.5,101.5C 629.5,102.833 630.167,103.5 631.5,103.5C 632.211,105.03 633.211,106.363 634.5,107.5C 632.565,106.85 630.565,106.517 628.5,106.5C 628.391,103.466 627.057,102.466 624.5,103.5C 623.4,100.958 622.066,98.6247 620.5,96.5 Z"/></g>
<g><path style="opacity:0.51" fill="#f6cbb8" d="M 629.5,101.5 C 630.5,101.833 631.167,102.5 631.5,103.5C 630.167,103.5 629.5,102.833 629.5,101.5 Z"/></g>
<g><path style="opacity:0.796" fill="#e9a28e" d="M 170.5,101.5 C 169.415,103.587 167.749,104.92 165.5,105.5C 166.585,103.413 168.251,102.08 170.5,101.5 Z"/></g>
<g><path style="opacity:0.416" fill="#fabfb3" d="M 631.5,103.5 C 633.754,104.124 635.421,105.457 636.5,107.5C 635.833,107.5 635.167,107.5 634.5,107.5C 633.211,106.363 632.211,105.03 631.5,103.5 Z"/></g>
<g><path style="opacity:0.769" fill="#f39e8f" d="M 165.5,105.5 C 164.415,107.587 162.749,108.92 160.5,109.5C 161.585,107.413 163.251,106.08 165.5,105.5 Z"/></g>
<g><path style="opacity:1" fill="#e7563f" d="M 634.5,107.5 C 635.167,107.5 635.833,107.5 636.5,107.5C 637.5,107.833 638.167,108.5 638.5,109.5C 638.973,110.906 639.973,111.573 641.5,111.5C 641.5,113.5 642.5,114.5 644.5,114.5C 644.833,115.167 645.167,115.833 645.5,116.5C 642.889,116.354 640.889,115.188 639.5,113C 637.866,112.506 636.199,112.34 634.5,112.5C 634.5,110.833 634.5,109.167 634.5,107.5 Z"/></g>
<g><path style="opacity:0.02" fill="#fedbd6" d="M 638.5,109.5 C 640.027,109.427 641.027,110.094 641.5,111.5C 639.973,111.573 638.973,110.906 638.5,109.5 Z"/></g>
<g><path style="opacity:0.682" fill="#f5ae9f" d="M 641.5,111.5 C 642.833,112.167 643.833,113.167 644.5,114.5C 642.5,114.5 641.5,113.5 641.5,111.5 Z"/></g>
<g><path style="opacity:0.067" fill="#ffc7c0" d="M 644.5,114.5 C 647.089,115.419 649.089,117.086 650.5,119.5C 648.589,118.925 646.922,117.925 645.5,116.5C 645.167,115.833 644.833,115.167 644.5,114.5 Z"/></g>
<g><path style="opacity:0.647" fill="#f6a395" d="M 160.5,109.5 C 155.136,114.865 149.469,119.865 143.5,124.5C 148.271,118.39 153.938,113.39 160.5,109.5 Z"/></g>
<g><path style="opacity:1" fill="#ef8173" d="M 650.5,119.5 C 652.167,120.5 653.5,121.833 654.5,123.5C 651.858,123.512 650.525,122.179 650.5,119.5 Z"/></g>
<g><path style="opacity:0.4" fill="#ffd5b5" d="M 655.5,123.5 C 657.167,124.5 658.5,125.833 659.5,127.5C 657.167,127.167 655.833,125.833 655.5,123.5 Z"/></g>
<g><path style="opacity:0.569" fill="#fbc2b2" d="M 659.5,127.5 C 665.559,132.557 670.893,138.224 675.5,144.5C 674.833,144.167 674.167,143.833 673.5,143.5C 668.438,138.443 663.772,133.11 659.5,127.5 Z"/></g>
<g><path style="opacity:1" fill="#e35141" d="M 143.5,125.5 C 140.167,130.833 135.833,135.167 130.5,138.5C 134.5,133.833 138.833,129.5 143.5,125.5 Z"/></g>
<g><path style="opacity:0.494" fill="#fcbdb4" d="M 143.5,124.5 C 143.5,124.833 143.5,125.167 143.5,125.5C 138.833,129.5 134.5,133.833 130.5,138.5C 128.5,140.167 126.5,141.833 124.5,143.5C 129.833,136.167 136.167,129.833 143.5,124.5 Z"/></g>
<g><path style="opacity:1" fill="#e46c5b" d="M 673.5,143.5 C 674.167,143.833 674.833,144.167 675.5,144.5C 676.5,144.833 677.167,145.5 677.5,146.5C 677.5,147.167 677.5,147.833 677.5,148.5C 675.633,147.24 674.3,145.573 673.5,143.5 Z"/></g>
<g><path style="opacity:0.729" fill="#fcbaaf" d="M 677.5,146.5 C 680.573,148.569 682.906,151.236 684.5,154.5C 682.167,152.5 679.833,150.5 677.5,148.5C 677.5,147.833 677.5,147.167 677.5,146.5 Z"/></g>
<g><path style="opacity:0.69" fill="#f4a195" d="M 124.5,143.5 C 120.199,149.135 115.533,154.468 110.5,159.5C 114.055,153.273 118.722,147.94 124.5,143.5 Z"/></g>
<g><path style="opacity:0.443" fill="#f9bfb4" d="M 684.5,154.5 C 686.914,155.911 688.581,157.911 689.5,160.5C 687.086,159.089 685.419,157.089 684.5,154.5 Z"/></g>
<g><path style="opacity:1" fill="#e54e37" d="M 677.5,148.5 C 679.833,150.5 682.167,152.5 684.5,154.5C 685.419,157.089 687.086,159.089 689.5,160.5C 690.419,163.089 692.086,165.089 694.5,166.5C 694.738,168.404 695.738,169.738 697.5,170.5C 697.5,171.167 697.5,171.833 697.5,172.5C 695.784,170.792 693.784,169.458 691.5,168.5C 690.754,167.264 690.421,165.93 690.5,164.5C 689.167,164.5 687.833,164.5 686.5,164.5C 686.5,163.167 686.5,161.833 686.5,160.5C 685.448,160.649 684.448,160.483 683.5,160C 683.833,159.667 684.167,159.333 684.5,159C 682.341,155.349 680.008,151.849 677.5,148.5 Z"/></g>
<g><path style="opacity:0.557" fill="#f7ae9e" d="M 110.5,159.5 C 109.581,162.089 107.914,164.089 105.5,165.5C 106.419,162.911 108.086,160.911 110.5,159.5 Z"/></g>
<g><path style="opacity:0.49" fill="#fcbfae" d="M 689.5,160.5 C 691.914,161.911 693.581,163.911 694.5,166.5C 692.086,165.089 690.419,163.089 689.5,160.5 Z"/></g>
<g><path style="opacity:0.631" fill="#f6beab" d="M 694.5,166.5 C 696.262,167.262 697.262,168.596 697.5,170.5C 695.738,169.738 694.738,168.404 694.5,166.5 Z"/></g>
<g><path style="opacity:0.518" fill="#f1b89d" d="M 105.5,165.5 C 104.92,167.749 103.587,169.415 101.5,170.5C 102.08,168.251 103.413,166.585 105.5,165.5 Z"/></g>
<g><path style="opacity:0.722" fill="#f1ae9d" d="M 101.5,170.5 C 101.262,172.404 100.262,173.738 98.5,174.5C 98.7376,172.596 99.7376,171.262 101.5,170.5 Z"/></g>
<g><path style="opacity:0.702" fill="#f3b4a3" d="M 697.5,170.5 C 699.262,171.262 700.262,172.596 700.5,174.5C 699.5,173.833 698.5,173.167 697.5,172.5C 697.5,171.833 697.5,171.167 697.5,170.5 Z"/></g>
<g><path style="opacity:1" fill="#e25243" d="M 697.5,172.5 C 698.5,173.167 699.5,173.833 700.5,174.5C 700.738,176.404 701.738,177.738 703.5,178.5C 703.5,179.167 703.5,179.833 703.5,180.5C 700.056,178.955 698.056,176.289 697.5,172.5 Z"/></g>
<g><path style="opacity:0.576" fill="#f3ae9f" d="M 98.5,174.5 C 98.2624,176.404 97.2624,177.738 95.5,178.5C 95.7376,176.596 96.7376,175.262 98.5,174.5 Z"/></g>
<g><path style="opacity:0.494" fill="#f6b5a2" d="M 700.5,174.5 C 702.262,175.262 703.262,176.596 703.5,178.5C 701.738,177.738 700.738,176.404 700.5,174.5 Z"/></g>
<g><path style="opacity:0.671" fill="#f5b3a3" d="M 95.5,178.5 C 94.5667,181.37 92.9,183.704 90.5,185.5C 91.4333,182.63 93.1,180.296 95.5,178.5 Z"/></g>
<g><path style="opacity:0.667" fill="#f8b8a9" d="M 703.5,178.5 C 705.262,179.262 706.262,180.596 706.5,182.5C 705.5,181.833 704.5,181.167 703.5,180.5C 703.5,179.833 703.5,179.167 703.5,178.5 Z"/></g>
<g><path style="opacity:0.361" fill="#ffc4b1" d="M 706.5,182.5 C 707.906,182.973 708.573,183.973 708.5,185.5C 707.094,185.027 706.427,184.027 706.5,182.5 Z"/></g>
<g><path style="opacity:0.42" fill="#fbbaa9" d="M 90.5,185.5 C 90.573,187.027 89.9063,188.027 88.5,188.5C 88.427,186.973 89.0937,185.973 90.5,185.5 Z"/></g>
<g><path style="opacity:0.4" fill="#fdbcad" d="M 708.5,185.5 C 709.906,185.973 710.573,186.973 710.5,188.5C 709.094,188.027 708.427,187.027 708.5,185.5 Z"/></g>
<g><path style="opacity:0.482" fill="#f7b1a0" d="M 88.5,188.5 C 88.573,190.027 87.9063,191.027 86.5,191.5C 86.427,189.973 87.0937,188.973 88.5,188.5 Z"/></g>
<g><path style="opacity:0.396" fill="#fcbaab" d="M 710.5,188.5 C 711.906,188.973 712.573,189.973 712.5,191.5C 711.094,191.027 710.427,190.027 710.5,188.5 Z"/></g>
<g><path style="opacity:0.471" fill="#fdb2a2" d="M 86.5,191.5 C 86.573,193.027 85.9063,194.027 84.5,194.5C 84.427,192.973 85.0937,191.973 86.5,191.5 Z"/></g>
<g><path style="opacity:0.4" fill="#feb6a8" d="M 712.5,191.5 C 713.906,191.973 714.573,192.973 714.5,194.5C 713.094,194.027 712.427,193.027 712.5,191.5 Z"/></g>
<g><path style="opacity:0.416" fill="#f6bba9" d="M 84.5,194.5 C 84.573,196.027 83.9063,197.027 82.5,197.5C 82.427,195.973 83.0937,194.973 84.5,194.5 Z"/></g>
<g><path style="opacity:0.361" fill="#f8beac" d="M 714.5,194.5 C 715.906,194.973 716.573,195.973 716.5,197.5C 715.094,197.027 714.427,196.027 714.5,194.5 Z"/></g>
<g><path style="opacity:0.365" fill="#fdc2b6" d="M 82.5,197.5 C 82.573,199.027 81.9063,200.027 80.5,200.5C 80.427,198.973 81.0937,197.973 82.5,197.5 Z"/></g>
<g><path style="opacity:0.31" fill="#fec9b7" d="M 716.5,197.5 C 717.906,197.973 718.573,198.973 718.5,200.5C 717.094,200.027 716.427,199.027 716.5,197.5 Z"/></g>
<g><path style="opacity:0.247" fill="#ffd0c8" d="M 718.5,200.5 C 719.906,200.973 720.573,201.973 720.5,203.5C 719.094,203.027 718.427,202.027 718.5,200.5 Z"/></g>
<g><path style="opacity:0.4" fill="#fbb2ac" d="M 79.5,202.5 C 79.573,204.027 78.9063,205.027 77.5,205.5C 77.427,203.973 78.0937,202.973 79.5,202.5 Z"/></g>
<g><path style="opacity:0.29" fill="#fbccb9" d="M 77.5,205.5 C 77.573,207.027 76.9063,208.027 75.5,208.5C 75.427,206.973 76.0937,205.973 77.5,205.5 Z"/></g>
<g><path style="opacity:0.247" fill="#ffd2c0" d="M 721.5,205.5 C 722.906,205.973 723.573,206.973 723.5,208.5C 722.094,208.027 721.427,207.027 721.5,205.5 Z"/></g>
<g><path style="opacity:0.329" fill="#fbc5ac" d="M 73.5,212.5 C 73.573,214.027 72.9063,215.027 71.5,215.5C 71.427,213.973 72.0937,212.973 73.5,212.5 Z"/></g>
<g><path style="opacity:0.29" fill="#fbc0b5" d="M 725.5,212.5 C 726.906,212.973 727.573,213.973 727.5,215.5C 726.833,215.167 726.167,214.833 725.5,214.5C 725.5,213.833 725.5,213.167 725.5,212.5 Z"/></g>
<g><path style="opacity:0.502" fill="#f8b6aa" d="M 728.5,217.5 C 730.527,220.22 732.193,223.22 733.5,226.5C 730.681,224.299 729.015,221.299 728.5,217.5 Z"/></g>
<g><path style="opacity:1" fill="#ec6a54" d="M 725.5,214.5 C 726.167,214.833 726.833,215.167 727.5,215.5C 728.338,215.842 728.672,216.508 728.5,217.5C 729.015,221.299 730.681,224.299 733.5,226.5C 735.341,228.849 736.674,231.515 737.5,234.5C 735.876,234.64 734.71,233.973 734,232.5C 733.751,233.624 733.251,234.624 732.5,235.5C 731.294,233.516 731.294,231.516 732.5,229.5C 729.246,224.918 726.913,219.918 725.5,214.5 Z"/></g>
<g><path style="opacity:1" fill="#e66351" d="M 71.5,215.5 C 71.4889,217.547 71.1556,219.547 70.5,221.5C 69.2302,225.702 67.2302,229.369 64.5,232.5C 65.5757,229.129 66.5757,225.796 67.5,222.5C 68.5957,219.968 69.9291,217.635 71.5,215.5 Z"/></g>
<g><path style="opacity:0.925" fill="#ef9f8d" d="M 67.5,222.5 C 66.5757,225.796 65.5757,229.129 64.5,232.5C 64.1667,232.5 63.8333,232.5 63.5,232.5C 63.1667,232.5 62.8333,232.5 62.5,232.5C 63.6745,228.817 65.3412,225.484 67.5,222.5 Z"/></g>
<g><path style="opacity:1" fill="#ed846f" d="M 62.5,232.5 C 62.8333,232.5 63.1667,232.5 63.5,232.5C 62.8505,234.435 62.5172,236.435 62.5,238.5C 61.5,238.5 60.5,238.5 59.5,238.5C 59.9925,236.181 60.9925,234.181 62.5,232.5 Z"/></g>
<g><path style="opacity:1" fill="#f77e43" d="M 379.5,236.5 C 393.344,236.171 407.01,236.504 420.5,237.5C 406.5,237.5 392.5,237.5 378.5,237.5C 378.832,284.336 378.499,331.003 377.5,377.5C 377.5,330.833 377.5,284.167 377.5,237.5C 377.842,236.662 378.508,236.328 379.5,236.5 Z"/></g>
<g><path style="opacity:1" fill="#fea252" d="M 420.5,237.5 C 421.499,283.997 421.832,330.664 421.5,377.5C 467.997,378.499 514.664,378.832 561.5,378.5C 561.5,392.5 561.5,406.5 561.5,420.5C 514.33,420.168 467.33,420.501 420.5,421.5C 419.667,467.332 419.167,513.332 419,559.5C 406.188,560.445 393.022,560.778 379.5,560.5C 379.832,514.33 379.499,468.33 378.5,422.5C 378.5,421.833 378.167,421.5 377.5,421.5C 331.003,420.501 284.336,420.168 237.5,420.5C 237.5,406.5 237.5,392.5 237.5,378.5C 284.336,378.832 331.003,378.499 377.5,377.5C 378.499,331.003 378.832,284.336 378.5,237.5C 392.5,237.5 406.5,237.5 420.5,237.5 Z"/></g>
<g><path style="opacity:0.812" fill="#f4b29f" d="M 739.5,238.5 C 741.293,240.426 742.293,242.759 742.5,245.5C 740.166,243.824 739.166,241.491 739.5,238.5 Z"/></g>
<g><path style="opacity:0.847" fill="#f6b09e" d="M 743.5,247.5 C 745.204,250.256 746.537,253.256 747.5,256.5C 744.835,254.165 743.502,251.165 743.5,247.5 Z"/></g>
<g><path style="opacity:0.82" fill="#ef9b8a" d="M 59.5,238.5 C 59.2634,241.647 58.4301,244.647 57,247.5C 53.5743,255.311 50.0743,262.977 46.5,270.5C 49.7615,259.322 54.0948,248.656 59.5,238.5 Z"/></g>
<g><path style="opacity:0.773" fill="#f8b4a7" d="M 748.5,259.5 C 750.737,263.534 752.404,267.868 753.5,272.5C 750.866,268.605 749.199,264.272 748.5,259.5 Z"/></g>
<g><path style="opacity:0.722" fill="#f5ab9a" d="M 46.5,270.5 C 44.7444,277.767 42.4111,284.767 39.5,291.5C 40.8604,284.085 43.1937,277.085 46.5,270.5 Z"/></g>
<g><path style="opacity:0.616" fill="#fbbaaa" d="M 753.5,272.5 C 757.478,281.774 760.478,291.441 762.5,301.5C 760.5,296.167 758.5,290.833 756.5,285.5C 755.293,281.214 754.293,276.88 753.5,272.5 Z"/></g>
<g><path style="opacity:1" fill="#e4634d" d="M 756.5,285.5 C 758.5,290.833 760.5,296.167 762.5,301.5C 763.434,302.568 763.768,303.901 763.5,305.5C 763.5,306.833 763.5,308.167 763.5,309.5C 761.856,305.962 760.356,302.295 759,298.5C 758.147,294.143 757.313,289.809 756.5,285.5 Z"/></g>
<g><path style="opacity:0.71" fill="#f6ac9d" d="M 39.5,291.5 C 39.2766,295.162 38.2766,298.495 36.5,301.5C 36.7234,297.838 37.7234,294.505 39.5,291.5 Z"/></g>
<g><path style="opacity:0.329" fill="#fec6bd" d="M 763.5,305.5 C 764.924,307.515 765.59,309.848 765.5,312.5C 764.833,311.5 764.167,310.5 763.5,309.5C 763.5,308.167 763.5,306.833 763.5,305.5 Z"/></g>
<g><path style="opacity:0.525" fill="#fabcb1" d="M 33.5,313.5 C 33.7062,316.495 33.0395,319.162 31.5,321.5C 31.5651,318.572 32.2318,315.905 33.5,313.5 Z"/></g>
<g><path style="opacity:1" fill="#ed806c" d="M 36.5,301.5 C 36.6657,305.846 36.499,310.179 36,314.5C 31.8384,329.105 28.8384,344.105 27,359.5C 26.7216,360.416 26.2216,361.082 25.5,361.5C 26.2925,347.951 28.2925,334.617 31.5,321.5C 33.0395,319.162 33.7062,316.495 33.5,313.5C 33.8984,309.239 34.8984,305.239 36.5,301.5 Z"/></g>
<g><path style="opacity:0.361" fill="#fcbdb2" d="M 765.5,313.5 C 766.768,315.905 767.435,318.572 767.5,321.5C 765.777,319.22 765.111,316.553 765.5,313.5 Z"/></g>
<g><path style="opacity:1" fill="#e35e47" d="M 763.5,309.5 C 764.167,310.5 764.833,311.5 765.5,312.5C 765.5,312.833 765.5,313.167 765.5,313.5C 765.111,316.553 765.777,319.22 767.5,321.5C 767.5,321.833 767.5,322.167 767.5,322.5C 767.5,324.167 767.5,325.833 767.5,327.5C 767.674,329.861 768.007,332.194 768.5,334.5C 767.778,334.082 767.278,333.416 767,332.5C 765.427,324.923 764.26,317.256 763.5,309.5 Z"/></g>
<g><path style="opacity:0.263" fill="#fdd1c4" d="M 767.5,322.5 C 768.768,324.905 769.435,327.572 769.5,330.5C 768.833,329.5 768.167,328.5 767.5,327.5C 767.5,325.833 767.5,324.167 767.5,322.5 Z"/></g>
<g><path style="opacity:0.812" fill="#f6a99e" d="M 767.5,327.5 C 768.167,328.5 768.833,329.5 769.5,330.5C 771.579,340.052 772.912,349.719 773.5,359.5C 772.177,355.571 771.177,351.571 770.5,347.5C 770.376,342.951 769.709,338.618 768.5,334.5C 768.007,332.194 767.674,329.861 767.5,327.5 Z"/></g>
<g><path style="opacity:1" fill="#df6451" d="M 770.5,347.5 C 771.177,351.571 772.177,355.571 773.5,359.5C 774.436,363.735 774.769,368.069 774.5,372.5C 774.83,388.009 774.496,403.342 773.5,418.5C 774.038,394.758 773.038,371.091 770.5,347.5 Z"/></g>
<g><path style="opacity:1" fill="#e04821" d="M 377.5,237.5 C 377.5,284.167 377.5,330.833 377.5,377.5C 330.5,377.5 283.5,377.5 236.5,377.5C 236.5,391.5 236.5,405.5 236.5,419.5C 235.504,405.343 235.171,391.01 235.5,376.5C 282.5,376.5 329.5,376.5 376.5,376.5C 376.828,330.458 376.495,284.458 375.5,238.5C 375.957,237.702 376.624,237.369 377.5,237.5 Z"/></g>
<g><path style="opacity:1" fill="#e24a23" d="M 379.5,236.5 C 393.569,235.17 407.735,235.17 422,236.5C 422.5,283.165 422.667,329.832 422.5,376.5C 468.542,376.828 514.542,376.495 560.5,375.5C 561.298,375.957 561.631,376.624 561.5,377.5C 514.833,377.5 468.167,377.5 421.5,377.5C 421.832,330.664 421.499,283.997 420.5,237.5C 407.01,236.504 393.344,236.171 379.5,236.5 Z"/></g>
<g><path style="opacity:1" fill="#f67e42" d="M 377.5,377.5 C 331.003,378.499 284.336,378.832 237.5,378.5C 237.5,392.5 237.5,406.5 237.5,420.5C 284.336,420.168 331.003,420.501 377.5,421.5C 330.833,421.5 284.167,421.5 237.5,421.5C 236.662,421.158 236.328,420.492 236.5,419.5C 236.5,405.5 236.5,391.5 236.5,377.5C 283.5,377.5 330.5,377.5 377.5,377.5 Z"/></g>
<g><path style="opacity:1" fill="#f57d41" d="M 421.5,377.5 C 468.167,377.5 514.833,377.5 561.5,377.5C 562.833,392.167 562.833,406.833 561.5,421.5C 514.833,421.5 468.167,421.5 421.5,421.5C 421.832,468.336 421.499,515.003 420.5,561.5C 420.5,514.833 420.5,468.167 420.5,421.5C 467.33,420.501 514.33,420.168 561.5,420.5C 561.5,406.5 561.5,392.5 561.5,378.5C 514.664,378.832 467.997,378.499 421.5,377.5 Z"/></g>
<g><path style="opacity:0.702" fill="#ea9a89" d="M 25.5,361.5 C 25.5,386.167 25.5,410.833 25.5,435.5C 25.5,436.167 25.5,436.833 25.5,437.5C 23.9858,425.036 23.3191,412.369 23.5,399.5C 23.3191,386.631 23.9858,373.964 25.5,361.5 Z"/></g>
<g><path style="opacity:0.463" fill="#f3b7a9" d="M 774.5,372.5 C 775.825,390.736 775.825,409.069 774.5,427.5C 774.167,427.5 773.833,427.5 773.5,427.5C 773.5,424.5 773.5,421.5 773.5,418.5C 774.496,403.342 774.83,388.009 774.5,372.5 Z"/></g>
<g><path style="opacity:1" fill="#e34c25" d="M 237.5,421.5 C 284.167,421.5 330.833,421.5 377.5,421.5C 377.5,468.167 377.5,514.833 377.5,561.5C 376.325,561.719 375.325,561.386 374.5,560.5C 376.488,514.65 377.155,468.65 376.5,422.5C 329.997,422.832 283.664,422.499 237.5,421.5 Z"/></g>
<g><path style="opacity:1" fill="#ffa45a" d="M 420.5,421.5 C 420.5,468.167 420.5,514.833 420.5,561.5C 406.5,561.5 392.5,561.5 378.5,561.5C 378.5,515.167 378.5,468.833 378.5,422.5C 379.499,468.33 379.832,514.33 379.5,560.5C 393.022,560.778 406.188,560.445 419,559.5C 419.167,513.332 419.667,467.332 420.5,421.5 Z"/></g>
<g><path style="opacity:1" fill="#e9512a" d="M 561.5,421.5 C 561.631,422.376 561.298,423.043 560.5,423.5C 514.542,422.505 468.542,422.172 422.5,422.5C 422.172,468.542 422.505,514.542 423.5,560.5C 422.995,561.919 421.995,562.585 420.5,562.5C 420.5,562.167 420.5,561.833 420.5,561.5C 421.499,515.003 421.832,468.336 421.5,421.5C 468.167,421.5 514.833,421.5 561.5,421.5 Z"/></g>
<g><path style="opacity:0.173" fill="#fbc7bc" d="M 773.5,427.5 C 773.833,427.5 774.167,427.5 774.5,427.5C 774.385,436.737 773.385,445.737 771.5,454.5C 771.5,453.167 771.5,451.833 771.5,450.5C 772.328,442.851 772.995,435.185 773.5,427.5 Z"/></g>
<g><path style="opacity:0.851" fill="#e99184" d="M 25.5,435.5 C 27.1357,439.21 27.8023,443.21 27.5,447.5C 27.1667,447.5 26.8333,447.5 26.5,447.5C 25.5863,444.272 25.2529,440.939 25.5,437.5C 25.5,436.833 25.5,436.167 25.5,435.5 Z"/></g>
<g><path style="opacity:0.533" fill="#f6aa9e" d="M 26.5,447.5 C 26.8333,447.5 27.1667,447.5 27.5,447.5C 29.393,457.085 30.7263,466.751 31.5,476.5C 29.097,467.087 27.4304,457.42 26.5,447.5 Z"/></g>
<g><path style="opacity:0.898" fill="#e37164" d="M 771.5,450.5 C 771.5,451.833 771.5,453.167 771.5,454.5C 771.5,454.833 771.5,455.167 771.5,455.5C 770.833,456.167 770.167,456.833 769.5,457.5C 769.41,454.848 770.076,452.515 771.5,450.5 Z"/></g>
<g><path style="opacity:0.349" fill="#fab9ad" d="M 771.5,455.5 C 770.169,467.159 767.836,478.493 764.5,489.5C 764.5,487.5 764.5,485.5 764.5,483.5C 767.226,475.161 768.893,466.494 769.5,457.5C 770.167,456.833 770.833,456.167 771.5,455.5 Z"/></g>
<g><path style="opacity:0.553" fill="#f6ab9d" d="M 31.5,477.5 C 33.5656,482.031 35.2323,486.697 36.5,491.5C 37.8359,498.175 39.1693,504.842 40.5,511.5C 36.5867,500.52 33.5867,489.186 31.5,477.5 Z"/></g>
<g><path style="opacity:0.961" fill="#e15b48" d="M 764.5,483.5 C 764.5,485.5 764.5,487.5 764.5,489.5C 763.5,491.5 762.5,493.5 761.5,495.5C 761.898,491.239 762.898,487.239 764.5,483.5 Z"/></g>
<g><path style="opacity:1" fill="#e2543c" d="M 36.5,491.5 C 39.4987,498.125 41.4987,505.125 42.5,512.5C 41.8333,512.167 41.1667,511.833 40.5,511.5C 39.1693,504.842 37.8359,498.175 36.5,491.5 Z"/></g>
<g><path style="opacity:0.11" fill="#fcc4b8" d="M 764.5,489.5 C 764.102,493.761 763.102,497.761 761.5,501.5C 761.5,499.5 761.5,497.5 761.5,495.5C 762.5,493.5 763.5,491.5 764.5,489.5 Z"/></g>
<g><path style="opacity:0.431" fill="#fbbaac" d="M 761.5,501.5 C 759.941,509.174 757.607,516.508 754.5,523.5C 754.959,520.123 755.626,516.789 756.5,513.5C 757.773,509.349 759.44,505.349 761.5,501.5 Z"/></g>
<g><path style="opacity:0.69" fill="#f5a899" d="M 40.5,511.5 C 41.1667,511.833 41.8333,512.167 42.5,512.5C 45.173,521.517 47.8396,530.517 50.5,539.5C 46.2011,530.61 42.8678,521.276 40.5,511.5 Z"/></g>
<g><path style="opacity:1" fill="#e05943" d="M 756.5,513.5 C 755.626,516.789 754.959,520.123 754.5,523.5C 753.833,524.167 753.167,524.833 752.5,525.5C 753.017,521.778 753.85,518.112 755,514.5C 755.383,513.944 755.883,513.611 756.5,513.5 Z"/></g>
<g><path style="opacity:1" fill="#e25840" d="M 751.5,527.5 C 751.5,528.833 751.5,530.167 751.5,531.5C 751.5,531.833 751.5,532.167 751.5,532.5C 749.246,536.007 747.246,539.673 745.5,543.5C 746.053,539.888 747.053,536.388 748.5,533C 748.415,531.893 748.081,530.893 747.5,530C 749.133,529.52 750.466,528.687 751.5,527.5 Z"/></g>
<g><path style="opacity:0.145" fill="#fbc7b8" d="M 754.5,523.5 C 754.267,526.542 753.267,529.208 751.5,531.5C 751.5,530.167 751.5,528.833 751.5,527.5C 752.338,527.158 752.672,526.492 752.5,525.5C 753.167,524.833 753.833,524.167 754.5,523.5 Z"/></g>
<g><path style="opacity:0.271" fill="#fdc7bb" d="M 751.5,532.5 C 750.065,537.49 748.065,542.156 745.5,546.5C 745.5,545.5 745.5,544.5 745.5,543.5C 747.246,539.673 749.246,536.007 751.5,532.5 Z"/></g>
<g><path style="opacity:0.431" fill="#fab5a8" d="M 51.5,541.5 C 52.9313,542.78 53.5979,544.447 53.5,546.5C 52.0687,545.22 51.4021,543.553 51.5,541.5 Z"/></g>
<g><path style="opacity:0.596" fill="#f1ad9f" d="M 53.5,546.5 C 55.2132,547.635 55.8799,549.302 55.5,551.5C 54.4625,550.07 53.7959,548.403 53.5,546.5 Z"/></g>
<g><path style="opacity:0.514" fill="#f4b6a5" d="M 745.5,546.5 C 745.598,548.553 744.931,550.22 743.5,551.5C 743.12,549.302 743.787,547.635 745.5,546.5 Z"/></g>
<g><path style="opacity:0.467" fill="#f5b4a1" d="M 55.5,551.5 C 57.539,552.911 58.539,554.911 58.5,557.5C 56.9925,555.819 55.9925,553.819 55.5,551.5 Z"/></g>
<g><path style="opacity:1" fill="#eb7662" d="M 740.5,554.5 C 740.167,556.5 739.833,558.5 739.5,560.5C 739.34,562.153 738.674,563.486 737.5,564.5C 735.461,565.911 734.461,567.911 734.5,570.5C 734.34,572.153 733.674,573.486 732.5,574.5C 732.167,574.5 731.833,574.5 731.5,574.5C 731.784,571.746 732.451,569.08 733.5,566.5C 736.409,562.662 738.742,558.662 740.5,554.5 Z"/></g>
<g><path style="opacity:0.224" fill="#fccabd" d="M 743.5,551.5 C 742.537,554.744 741.204,557.744 739.5,560.5C 739.833,558.5 740.167,556.5 740.5,554.5C 741.272,553.306 742.272,552.306 743.5,551.5 Z"/></g>
<g><path style="opacity:0.314" fill="#fcc5b7" d="M 58.5,557.5 C 59.1667,558.167 59.8333,558.833 60.5,559.5C 60.5,560.5 60.5,561.5 60.5,562.5C 59.0687,561.22 58.4021,559.553 58.5,557.5 Z"/></g>
<g><path style="opacity:1" fill="#f5753e" d="M 377.5,421.5 C 378.167,421.5 378.5,421.833 378.5,422.5C 378.5,468.833 378.5,515.167 378.5,561.5C 392.5,561.5 406.5,561.5 420.5,561.5C 420.5,561.833 420.5,562.167 420.5,562.5C 405.99,562.829 391.657,562.496 377.5,561.5C 377.5,514.833 377.5,468.167 377.5,421.5 Z"/></g>
<g><path style="opacity:0.882" fill="#e77d6d" d="M 60.5,559.5 C 62.0075,561.181 63.0075,563.181 63.5,565.5C 62.8333,565.167 62.1667,564.833 61.5,564.5C 60.6618,564.158 60.3284,563.492 60.5,562.5C 60.5,561.5 60.5,560.5 60.5,559.5 Z"/></g>
<g><path style="opacity:0.353" fill="#fccbc1" d="M 61.5,564.5 C 62.1667,564.833 62.8333,565.167 63.5,565.5C 63.5,566.5 63.5,567.5 63.5,568.5C 62.3263,567.486 61.6596,566.153 61.5,564.5 Z"/></g>
<g><path style="opacity:0.267" fill="#fdc9bc" d="M 737.5,564.5 C 737.008,566.819 736.008,568.819 734.5,570.5C 734.461,567.911 735.461,565.911 737.5,564.5 Z"/></g>
<g><path style="opacity:1" fill="#e7634f" d="M 63.5,565.5 C 64.4674,566.806 65.8007,567.473 67.5,567.5C 69.102,573.306 71.102,578.973 73.5,584.5C 72.8333,584.167 72.1667,583.833 71.5,583.5C 70.3263,582.486 69.6596,581.153 69.5,579.5C 68.2781,575.388 66.2781,571.721 63.5,568.5C 63.5,567.5 63.5,566.5 63.5,565.5 Z"/></g>
<g><path style="opacity:0.31" fill="#fac2b5" d="M 63.5,568.5 C 66.2781,571.721 68.2781,575.388 69.5,579.5C 66.7417,576.322 64.7417,572.655 63.5,568.5 Z"/></g>
<g><path style="opacity:0.208" fill="#fecac3" d="M 731.5,574.5 C 731.833,574.5 732.167,574.5 732.5,574.5C 732.25,576.674 731.25,578.341 729.5,579.5C 729.392,577.486 730.058,575.82 731.5,574.5 Z"/></g>
<g><path style="opacity:0.341" fill="#f6bfb4" d="M 729.5,579.5 C 729.34,581.153 728.674,582.486 727.5,583.5C 727.229,581.62 727.896,580.287 729.5,579.5 Z"/></g>
<g><path style="opacity:0.22" fill="#fccbb1" d="M 71.5,583.5 C 72.1667,583.833 72.8333,584.167 73.5,584.5C 73.5,584.833 73.5,585.167 73.5,585.5C 73.5,585.833 73.5,586.167 73.5,586.5C 72.0937,586.027 71.427,585.027 71.5,583.5 Z"/></g>
<g><path style="opacity:0.18" fill="#fdd5bc" d="M 727.5,583.5 C 727.573,585.027 726.906,586.027 725.5,586.5C 725.427,584.973 726.094,583.973 727.5,583.5 Z"/></g>
<g><path style="opacity:0.173" fill="#fbd0c1" d="M 75.5,590.5 C 76.9063,590.973 77.573,591.973 77.5,593.5C 76.0937,593.027 75.427,592.027 75.5,590.5 Z"/></g>
<g><path style="opacity:0.145" fill="#fdd4b5" d="M 723.5,590.5 C 723.573,592.027 722.906,593.027 721.5,593.5C 721.427,591.973 722.094,590.973 723.5,590.5 Z"/></g>
<g><path style="opacity:1" fill="#ec6a53" d="M 85.5,603.5 C 84.8333,603.5 84.1667,603.5 83.5,603.5C 82.6618,603.158 82.3284,602.492 82.5,601.5C 82.1298,598.733 80.7964,596.733 78.5,595.5C 77.6618,595.158 77.3284,594.492 77.5,593.5C 77.573,591.973 76.9063,590.973 75.5,590.5C 74.3263,589.486 73.6596,588.153 73.5,586.5C 73.5,586.167 73.5,585.833 73.5,585.5C 75.1439,585.714 76.6439,585.38 78,584.5C 78.4552,587.854 78.9552,591.187 79.5,594.5C 80.5,594.5 81.5,594.5 82.5,594.5C 82.6469,597.792 83.6469,600.792 85.5,603.5 Z"/></g>
<g><path style="opacity:0.859" fill="#f7ad9d" d="M 78.5,595.5 C 80.7964,596.733 82.1298,598.733 82.5,601.5C 80.684,599.882 79.3507,597.882 78.5,595.5 Z"/></g>
<g><path style="opacity:0.165" fill="#fcc8b8" d="M 720.5,595.5 C 719.331,598.511 717.664,601.178 715.5,603.5C 715.5,602.833 715.5,602.167 715.5,601.5C 716.701,599.091 718.367,597.091 720.5,595.5 Z"/></g>
<g><path style="opacity:0.824" fill="#f7a89a" d="M 83.5,603.5 C 84.1667,603.5 84.8333,603.5 85.5,603.5C 85.8333,604.833 86.1667,606.167 86.5,607.5C 85.0256,606.564 84.0256,605.23 83.5,603.5 Z"/></g>
<g><path style="opacity:0.957" fill="#f19080" d="M 715.5,601.5 C 715.5,602.167 715.5,602.833 715.5,603.5C 714.974,605.23 713.974,606.564 712.5,607.5C 712.5,606.5 712.5,605.5 712.5,604.5C 713.5,603.5 714.5,602.5 715.5,601.5 Z"/></g>
<g><path style="opacity:0.835" fill="#f1aa9a" d="M 87.5,609.5 C 89.4456,610.035 90.4456,611.368 90.5,613.5C 89.0256,612.564 88.0256,611.23 87.5,609.5 Z"/></g>
<g><path style="opacity:1" fill="#ec6750" d="M 712.5,604.5 C 712.5,605.5 712.5,606.5 712.5,607.5C 711.66,609.853 710.326,611.853 708.5,613.5C 706.473,614.861 704.806,616.527 703.5,618.5C 703.34,616.801 703.506,615.134 704,613.5C 704.667,612.167 705.333,612.167 706,613.5C 706.333,612.167 706.667,610.833 707,609.5C 707.333,610.167 707.667,610.833 708,611.5C 708.555,608.419 710.055,606.086 712.5,604.5 Z"/></g>
<g><path style="opacity:1" fill="#e88874" d="M 90.5,613.5 C 92.1003,614.252 93.6003,615.252 95,616.5C 96.6294,618.737 98.1294,621.071 99.5,623.5C 98.8333,623.5 98.1667,623.5 97.5,623.5C 97.573,621.973 96.9063,620.973 95.5,620.5C 93.1,618.704 91.4333,616.37 90.5,613.5 Z"/></g>
<g><path style="opacity:0.792" fill="#f4b09c" d="M 708.5,613.5 C 706.938,617.392 704.605,620.725 701.5,623.5C 701.833,622.167 702.167,620.833 702.5,619.5C 702.5,618.833 702.833,618.5 703.5,618.5C 704.806,616.527 706.473,614.861 708.5,613.5 Z"/></g>
<g><path style="opacity:0.031" fill="#fac8be" d="M 95.5,620.5 C 96.9063,620.973 97.573,621.973 97.5,623.5C 96.0937,623.027 95.427,622.027 95.5,620.5 Z"/></g>
<g><path style="opacity:0.553" fill="#f4ae9d" d="M 97.5,623.5 C 98.1667,623.5 98.8333,623.5 99.5,623.5C 100.167,625.167 100.833,626.833 101.5,628.5C 99.457,627.421 98.1237,625.754 97.5,623.5 Z"/></g>
<g><path style="opacity:0.031" fill="#fbc7b9" d="M 700.5,624.5 C 700.262,626.404 699.262,627.738 697.5,628.5C 697.738,626.596 698.738,625.262 700.5,624.5 Z"/></g>
<g><path style="opacity:1" fill="#e75741" d="M 702.5,619.5 C 702.167,620.833 701.833,622.167 701.5,623.5C 701.5,624.167 701.167,624.5 700.5,624.5C 698.738,625.262 697.738,626.596 697.5,628.5C 695.413,629.585 694.08,631.251 693.5,633.5C 692.094,633.973 691.427,634.973 691.5,636.5C 691.167,637.5 690.5,638.167 689.5,638.5C 688.833,638.833 688.167,639.167 687.5,639.5C 687.5,638.167 687.5,636.833 687.5,635.5C 688.5,635.5 689.5,635.5 690.5,635.5C 690.626,633.8 691.293,632.3 692.5,631C 692.355,630.228 692.022,629.561 691.5,629C 692.253,627.513 693.086,627.346 694,628.5C 694.333,627.5 694.667,626.5 695,625.5C 696.666,626.34 696.833,625.84 695.5,624C 698.117,622.918 700.451,621.418 702.5,619.5 Z"/></g>
<g><path style="opacity:0.51" fill="#f6c9b8" d="M 101.5,629.5 C 102.833,629.5 103.5,630.167 103.5,631.5C 102.5,631.167 101.833,630.5 101.5,629.5 Z"/></g>
<g><path style="opacity:0.765" fill="#eba996" d="M 103.5,631.5 C 104.833,631.5 105.5,632.167 105.5,633.5C 104.5,633.167 103.833,632.5 103.5,631.5 Z"/></g>
<g><path style="opacity:0.149" fill="#f7c4ad" d="M 697.5,628.5 C 696.92,630.749 695.587,632.415 693.5,633.5C 694.08,631.251 695.413,629.585 697.5,628.5 Z"/></g>
<g><path style="opacity:0.525" fill="#fdc7bb" d="M 105.5,634.5 C 106.833,634.5 107.5,635.167 107.5,636.5C 106.5,636.167 105.833,635.5 105.5,634.5 Z"/></g>
<g><path style="opacity:0.063" fill="#fed3bb" d="M 693.5,633.5 C 693.573,635.027 692.906,636.027 691.5,636.5C 691.427,634.973 692.094,633.973 693.5,633.5 Z"/></g>
<g><path style="opacity:0.016" fill="#fedcd7" d="M 109.5,638.5 C 110.906,638.973 111.573,639.973 111.5,641.5C 110.094,641.027 109.427,640.027 109.5,638.5 Z"/></g>
<g><path style="opacity:1" fill="#ea8976" d="M 111.5,641.5 C 114.179,641.525 115.512,642.858 115.5,645.5C 113.833,644.5 112.5,643.167 111.5,641.5 Z"/></g>
<g><path style="opacity:0.133" fill="#fabdb0" d="M 689.5,638.5 C 688.243,641.427 686.243,643.761 683.5,645.5C 684.415,643.246 685.748,641.246 687.5,639.5C 688.167,639.167 688.833,638.833 689.5,638.5 Z"/></g>
<g><path style="opacity:0.035" fill="#fec9bb" d="M 683.5,645.5 C 682.243,648.427 680.243,650.761 677.5,652.5C 678.757,649.573 680.757,647.239 683.5,645.5 Z"/></g>
<g><path style="opacity:0.063" fill="#ffc8c1" d="M 115.5,645.5 C 117.587,646.585 118.92,648.251 119.5,650.5C 117.413,649.415 116.08,647.749 115.5,645.5 Z"/></g>
<g><path style="opacity:1" fill="#eb7e6f" d="M 119.5,650.5 C 122.427,651.097 124.427,652.764 125.5,655.5C 124.833,655.5 124.167,655.5 123.5,655.5C 122.167,653.833 120.833,652.167 119.5,650.5 Z"/></g>
<g><path style="opacity:0.008" fill="#ffdcd7" d="M 676.5,653.5 C 676.5,654.833 675.833,655.5 674.5,655.5C 674.833,654.5 675.5,653.833 676.5,653.5 Z"/></g>
<g><path style="opacity:0.408" fill="#fecdb9" d="M 123.5,655.5 C 124.167,655.5 124.833,655.5 125.5,655.5C 127.909,657.902 129.909,660.569 131.5,663.5C 128.5,661.167 125.833,658.5 123.5,655.5 Z"/></g>
<g><path style="opacity:0.027" fill="#fecec4" d="M 674.5,655.5 C 673.581,658.089 671.914,660.089 669.5,661.5C 669.733,659.938 670.4,658.605 671.5,657.5C 672.5,656.833 673.5,656.167 674.5,655.5 Z"/></g>
<g><path style="opacity:1" fill="#ea5b43" d="M 671.5,657.5 C 670.4,658.605 669.733,659.938 669.5,661.5C 669.5,662.167 669.167,662.5 668.5,662.5C 665.167,663.833 662.833,666.167 661.5,669.5C 661.5,670.167 661.167,670.5 660.5,670.5C 659.391,670.557 658.391,670.89 657.5,671.5C 657.5,670.167 657.5,668.833 657.5,667.5C 658.5,667.5 659.5,667.5 660.5,667.5C 661.668,666.235 662.668,664.235 663.5,661.5C 664.736,660.754 666.07,660.421 667.5,660.5C 667.338,658.473 667.505,656.473 668,654.5C 668.483,655.448 668.649,656.448 668.5,657.5C 669.5,657.5 670.5,657.5 671.5,657.5 Z"/></g>
<g><path style="opacity:0.573" fill="#fdc6b5" d="M 131.5,663.5 C 136.44,666.77 140.773,670.77 144.5,675.5C 139.56,672.23 135.227,668.23 131.5,663.5 Z"/></g>
<g><path style="opacity:0.027" fill="#feccc2" d="M 668.5,662.5 C 666.5,665.167 664.167,667.5 661.5,669.5C 662.833,666.167 665.167,663.833 668.5,662.5 Z"/></g>
<g><path style="opacity:0.027" fill="#ffd4c9" d="M 660.5,670.5 C 659.833,671.833 658.833,672.833 657.5,673.5C 657.5,672.833 657.5,672.167 657.5,671.5C 658.391,670.89 659.391,670.557 660.5,670.5 Z"/></g>
<g><path style="opacity:1" fill="#ee7c68" d="M 657.5,671.5 C 657.5,672.167 657.5,672.833 657.5,673.5C 656.055,675.063 654.389,676.396 652.5,677.5C 652.5,675.833 652.5,674.167 652.5,672.5C 654.216,672.371 655.883,672.038 657.5,671.5 Z"/></g>
<g><path style="opacity:0.855" fill="#f8aea0" d="M 144.5,675.5 C 148.1,677.43 151.1,680.097 153.5,683.5C 149.9,681.57 146.9,678.903 144.5,675.5 Z"/></g>
<g><path style="opacity:0.067" fill="#ffcac3" d="M 650.5,679.5 C 649.415,681.587 647.749,682.92 645.5,683.5C 646.585,681.413 648.251,680.08 650.5,679.5 Z"/></g>
<g><path style="opacity:0.847" fill="#f2af9e" d="M 153.5,683.5 C 156.427,684.757 158.761,686.757 160.5,689.5C 157.573,688.243 155.239,686.243 153.5,683.5 Z"/></g>
<g><path style="opacity:0.082" fill="#fcc6ba" d="M 645.5,683.5 C 643.761,686.243 641.427,688.243 638.5,689.5C 638.833,688.833 639.167,688.167 639.5,687.5C 641.246,685.748 643.246,684.415 645.5,683.5 Z"/></g>
<g><path style="opacity:1" fill="#e8715a" d="M 639.5,687.5 C 639.167,688.167 638.833,688.833 638.5,689.5C 638.167,690.5 637.5,691.167 636.5,691.5C 636.167,691.5 635.833,691.5 635.5,691.5C 635.5,690.167 635.5,688.833 635.5,687.5C 636.833,687.5 638.167,687.5 639.5,687.5 Z"/></g>
<g><path style="opacity:0.745" fill="#fab1a2" d="M 160.5,689.5 C 162.749,690.08 164.415,691.413 165.5,693.5C 163.251,692.92 161.585,691.587 160.5,689.5 Z"/></g>
<g><path style="opacity:0.016" fill="#ffdfd6" d="M 635.5,691.5 C 635.833,691.5 636.167,691.5 636.5,691.5C 636.027,692.906 635.027,693.573 633.5,693.5C 633.833,692.5 634.5,691.833 635.5,691.5 Z"/></g>
<g><path style="opacity:0.157" fill="#f9cbb8" d="M 633.5,693.5 C 632.415,695.587 630.749,696.92 628.5,697.5C 628.833,696.833 629.167,696.167 629.5,695.5C 630.605,694.4 631.938,693.733 633.5,693.5 Z"/></g>
<g><path style="opacity:0.455" fill="#f5bba9" d="M 165.5,693.5 C 167.749,694.08 169.415,695.413 170.5,697.5C 168.251,696.92 166.585,695.587 165.5,693.5 Z"/></g>
<g><path style="opacity:0.675" fill="#f3b5a1" d="M 170.5,697.5 C 172.404,697.738 173.738,698.738 174.5,700.5C 172.596,700.262 171.262,699.262 170.5,697.5 Z"/></g>
<g><path style="opacity:0.106" fill="#faceb7" d="M 628.5,697.5 C 627.738,699.262 626.404,700.262 624.5,700.5C 625.262,698.738 626.596,697.738 628.5,697.5 Z"/></g>
<g><path style="opacity:0.498" fill="#f8bba7" d="M 174.5,700.5 C 176.404,700.738 177.738,701.738 178.5,703.5C 176.596,703.262 175.262,702.262 174.5,700.5 Z"/></g>
<g><path style="opacity:0.016" fill="#ffdfd4" d="M 623.5,701.5 C 623.027,702.906 622.027,703.573 620.5,703.5C 620.973,702.094 621.973,701.427 623.5,701.5 Z"/></g>
<g><path style="opacity:0.431" fill="#f6b4a4" d="M 178.5,703.5 C 180.027,703.427 181.027,704.094 181.5,705.5C 179.973,705.573 178.973,704.906 178.5,703.5 Z"/></g>
<g><path style="opacity:1" fill="#eb4c33" d="M 629.5,695.5 C 629.167,696.167 628.833,696.833 628.5,697.5C 626.596,697.738 625.262,698.738 624.5,700.5C 624.5,701.167 624.167,701.5 623.5,701.5C 621.973,701.427 620.973,702.094 620.5,703.5C 618.973,703.427 617.973,704.094 617.5,705.5C 614.63,706.433 612.296,708.1 610.5,710.5C 610.027,711.906 609.027,712.573 607.5,712.5C 604.446,712.354 602.446,713.687 601.5,716.5C 598.802,716.845 596.802,718.178 595.5,720.5C 595.158,721.338 594.492,721.672 593.5,721.5C 592.833,721.5 592.167,721.5 591.5,721.5C 590.972,720.153 590.805,718.819 591,717.5C 592.183,718.731 593.349,718.731 594.5,717.5C 593.624,716.749 592.624,716.249 591.5,716C 594.553,715.821 597.553,715.321 600.5,714.5C 599.167,713.833 597.833,713.167 596.5,712.5C 598.824,711.338 601.158,710.171 603.5,709C 602.5,708 601.5,707 600.5,706C 602.433,705.749 604.266,705.249 606,704.5C 606.499,700.848 606.665,697.182 606.5,693.5C 607.552,693.649 608.552,693.483 609.5,693C 611.021,689.983 610.021,688.15 606.5,687.5C 608.743,686.526 611.076,686.192 613.5,686.5C 613.244,688.792 613.577,690.959 614.5,693C 613.012,694.717 611.179,695.884 609,696.5C 608.383,697.449 608.549,698.282 609.5,699C 610.944,699.781 612.277,699.614 613.5,698.5C 614.04,697.252 614.707,696.085 615.5,695C 618.753,694.389 621.753,693.222 624.5,691.5C 625.611,693.552 627.277,694.886 629.5,695.5 Z"/></g>
<g><path style="opacity:0.067" fill="#fbc7b8" d="M 620.5,703.5 C 620.027,704.906 619.027,705.573 617.5,705.5C 617.973,704.094 618.973,703.427 620.5,703.5 Z"/></g>
<g><path style="opacity:0.733" fill="#f6ad9e" d="M 181.5,705.5 C 183.404,705.738 184.738,706.738 185.5,708.5C 183.596,708.262 182.262,707.262 181.5,705.5 Z"/></g>
<g><path style="opacity:0.176" fill="#fac0ae" d="M 617.5,705.5 C 615.704,707.9 613.37,709.567 610.5,710.5C 612.296,708.1 614.63,706.433 617.5,705.5 Z"/></g>
<g><path style="opacity:0.384" fill="#fdbcb1" d="M 185.5,708.5 C 187.027,708.427 188.027,709.094 188.5,710.5C 186.973,710.573 185.973,709.906 185.5,708.5 Z"/></g>
<g><path style="opacity:0.396" fill="#fcbaaa" d="M 188.5,710.5 C 190.027,710.427 191.027,711.094 191.5,712.5C 189.973,712.573 188.973,711.906 188.5,710.5 Z"/></g>
<g><path style="opacity:0.961" fill="#f19a88" d="M 607.5,712.5 C 605.853,714.326 603.853,715.66 601.5,716.5C 602.446,713.687 604.446,712.354 607.5,712.5 Z"/></g>
<g><path style="opacity:0.396" fill="#fdb5a6" d="M 191.5,712.5 C 193.027,712.427 194.027,713.094 194.5,714.5C 192.973,714.573 191.973,713.906 191.5,712.5 Z"/></g>
<g><path style="opacity:0.361" fill="#f8c1ae" d="M 194.5,714.5 C 196.027,714.427 197.027,715.094 197.5,716.5C 195.973,716.573 194.973,715.906 194.5,714.5 Z"/></g>
<g><path style="opacity:0.31" fill="#fec7b5" d="M 197.5,716.5 C 199.027,716.427 200.027,717.094 200.5,718.5C 198.973,718.573 197.973,717.906 197.5,716.5 Z"/></g>
<g><path style="opacity:0.31" fill="#fdc5ba" d="M 601.5,716.5 C 599.853,718.326 597.853,719.66 595.5,720.5C 596.802,718.178 598.802,716.845 601.5,716.5 Z"/></g>
<g><path style="opacity:0.337" fill="#fcb8b0" d="M 202.5,719.5 C 204.027,719.427 205.027,720.094 205.5,721.5C 203.973,721.573 202.973,720.906 202.5,719.5 Z"/></g>
<g><path style="opacity:0.259" fill="#fed0b4" d="M 205.5,721.5 C 207.027,721.427 208.027,722.094 208.5,723.5C 206.973,723.573 205.973,722.906 205.5,721.5 Z"/></g>
<g><path style="opacity:0.004" fill="#ffe1d5" d="M 591.5,721.5 C 592.167,721.5 592.833,721.5 593.5,721.5C 593.027,722.906 592.027,723.573 590.5,723.5C 590.833,722.833 591.167,722.167 591.5,721.5 Z"/></g>
<g><path style="opacity:0.176" fill="#fbc0b2" d="M 588.5,724.5 C 585.992,726.924 582.992,728.59 579.5,729.5C 580.984,727.926 582.651,726.593 584.5,725.5C 585.708,724.766 587.041,724.433 588.5,724.5 Z"/></g>
<g><path style="opacity:0.29" fill="#fbbfb7" d="M 212.5,725.5 C 214.027,725.427 215.027,726.094 215.5,727.5C 213.973,727.573 212.973,726.906 212.5,725.5 Z"/></g>
<g><path style="opacity:1" fill="#e95037" d="M 584.5,725.5 C 582.651,726.593 580.984,727.926 579.5,729.5C 579.158,730.338 578.492,730.672 577.5,730.5C 569.818,733.674 562.485,737.341 555.5,741.5C 555.158,742.338 554.492,742.672 553.5,742.5C 550.759,742.707 548.426,743.707 546.5,745.5C 544.447,745.402 542.78,746.069 541.5,747.5C 539.5,747.833 537.5,748.167 535.5,748.5C 535.953,747.542 536.619,746.708 537.5,746C 536.833,745.667 536.167,745.333 535.5,745C 538.423,743.29 541.423,743.123 544.5,744.5C 545.912,743.194 547.579,742.36 549.5,742C 548.315,740.647 546.981,739.48 545.5,738.5C 547.045,737.548 548.712,737.215 550.5,737.5C 550.5,738.5 550.5,739.5 550.5,740.5C 552.867,739.836 554.867,738.503 556.5,736.5C 555.975,735.808 555.308,735.308 554.5,735C 555.793,734.51 557.127,734.343 558.5,734.5C 558.5,731.833 558.5,729.167 558.5,726.5C 563.101,727.01 564.434,729.01 562.5,732.5C 563,732.833 563.5,733.167 564,733.5C 570.699,730.397 577.532,727.731 584.5,725.5 Z"/></g>
<g><path style="opacity:0.235" fill="#ffd0c6" d="M 221.5,730.5 C 222.609,730.557 223.609,730.89 224.5,731.5C 224.5,731.833 224.5,732.167 224.5,732.5C 222.973,732.573 221.973,731.906 221.5,730.5 Z"/></g>
<g><path style="opacity:1" fill="#ef7e68" d="M 224.5,731.5 C 227.522,731.804 230.522,732.304 233.5,733C 232.663,734.011 232.33,735.178 232.5,736.5C 229.515,735.674 226.849,734.341 224.5,732.5C 224.5,732.167 224.5,731.833 224.5,731.5 Z"/></g>
<g><path style="opacity:0.286" fill="#fcc5b7" d="M 577.5,730.5 C 570.763,735.202 563.43,738.868 555.5,741.5C 562.485,737.341 569.818,733.674 577.5,730.5 Z"/></g>
<g><path style="opacity:0.878" fill="#f5a798" d="M 234.5,737.5 C 236.483,737.157 237.817,737.824 238.5,739.5C 236.847,739.34 235.514,738.674 234.5,737.5 Z"/></g>
<g><path style="opacity:0.808" fill="#f2a996" d="M 238.5,739.5 C 240.698,739.12 242.365,739.787 243.5,741.5C 241.597,741.204 239.93,740.537 238.5,739.5 Z"/></g>
<g><path style="opacity:0.902" fill="#f7a999" d="M 245.5,742.5 C 249.007,742.92 252.341,743.92 255.5,745.5C 255.833,746.167 256.167,746.833 256.5,747.5C 252.503,746.397 248.836,744.731 245.5,742.5 Z"/></g>
<g><path style="opacity:0.286" fill="#fdcabd" d="M 553.5,742.5 C 551.574,744.293 549.241,745.293 546.5,745.5C 548.426,743.707 550.759,742.707 553.5,742.5 Z"/></g>
<g><path style="opacity:0.345" fill="#fdc0b4" d="M 546.5,745.5 C 545.22,746.931 543.553,747.598 541.5,747.5C 542.78,746.069 544.447,745.402 546.5,745.5 Z"/></g>
<g><path style="opacity:0.635" fill="#f4b9a8" d="M 256.5,747.5 C 258.698,747.12 260.365,747.787 261.5,749.5C 259.597,749.204 257.93,748.537 256.5,747.5 Z"/></g>
<g><path style="opacity:0.89" fill="#f7afa2" d="M 262.5,749.5 C 267.948,750.76 273.282,752.427 278.5,754.5C 281.739,755.462 284.739,756.795 287.5,758.5C 278.722,756.465 270.389,753.465 262.5,749.5 Z"/></g>
<g><path style="opacity:1" fill="#e74f37" d="M 278.5,754.5 C 273.282,752.427 267.948,750.76 262.5,749.5C 262.167,749.5 261.833,749.5 261.5,749.5C 260.365,747.787 258.698,747.12 256.5,747.5C 256.167,746.833 255.833,746.167 255.5,745.5C 258.343,745.058 261.009,744.058 263.5,742.5C 268.183,744.175 267.516,745.342 261.5,746C 266.217,748.452 271.217,750.285 276.5,751.5C 277.193,752.518 277.859,753.518 278.5,754.5 Z"/></g>
<g><path style="opacity:0.039" fill="#fdc4b9" d="M 541.5,747.5 C 533.026,751.994 524.026,755.328 514.5,757.5C 521.582,754.695 528.582,751.695 535.5,748.5C 537.5,748.167 539.5,747.833 541.5,747.5 Z"/></g>
<g><path style="opacity:0.549" fill="#fcbfae" d="M 287.5,758.5 C 290.167,758.833 292.833,759.167 295.5,759.5C 297.5,760.5 299.5,761.5 301.5,762.5C 296.562,761.769 291.895,760.435 287.5,758.5 Z"/></g>
<g><path style="opacity:1" fill="#e4705a" d="M 295.5,759.5 C 298.216,759.678 300.883,760.178 303.5,761C 304.756,761.417 305.423,762.25 305.5,763.5C 303.901,763.768 302.568,763.434 301.5,762.5C 299.5,761.5 297.5,760.5 295.5,759.5 Z"/></g>
<g><path style="opacity:0.122" fill="#fcc4b6" d="M 514.5,757.5 C 506.545,760.813 498.211,763.147 489.5,764.5C 491.5,763.5 493.5,762.5 495.5,761.5C 501.825,760.171 508.158,758.837 514.5,757.5 Z"/></g>
<g><path style="opacity:1" fill="#e4533c" d="M 495.5,761.5 C 493.5,762.5 491.5,763.5 489.5,764.5C 484.5,765.167 479.5,765.833 474.5,766.5C 475.449,763.293 477.449,762.626 480.5,764.5C 485.331,762.703 490.331,761.703 495.5,761.5 Z"/></g>
<g><path style="opacity:0.427" fill="#f8bbae" d="M 313.5,765.5 C 316.237,765.401 318.904,765.735 321.5,766.5C 321.5,766.833 321.5,767.167 321.5,767.5C 318.572,767.435 315.905,766.768 313.5,765.5 Z"/></g>
<g><path style="opacity:1" fill="#ed826b" d="M 321.5,767.5 C 321.5,767.167 321.5,766.833 321.5,766.5C 325.897,766.425 330.23,766.925 334.5,768C 335.056,768.383 335.389,768.883 335.5,769.5C 334.5,769.5 333.5,769.5 332.5,769.5C 328.709,769.341 325.042,768.675 321.5,767.5 Z"/></g>
<g><path style="opacity:0.353" fill="#fab5a7" d="M 489.5,764.5 C 475.884,768.555 461.884,771.222 447.5,772.5C 447.5,772.167 447.5,771.833 447.5,771.5C 456.631,770.368 465.631,768.701 474.5,766.5C 479.5,765.833 484.5,765.167 489.5,764.5 Z"/></g>
<g><path style="opacity:0.824" fill="#f5b1a5" d="M 332.5,769.5 C 333.5,769.5 334.5,769.5 335.5,769.5C 339.5,769.833 343.5,770.167 347.5,770.5C 358.075,772.642 368.742,773.976 379.5,774.5C 377.167,774.5 374.833,774.5 372.5,774.5C 358.852,774.282 345.519,772.615 332.5,769.5 Z"/></g>
<g><path style="opacity:1" fill="#de543f" d="M 347.5,770.5 C 376.787,772.34 406.121,773.007 435.5,772.5C 435.5,772.833 435.5,773.167 435.5,773.5C 416.84,774.129 398.173,774.463 379.5,774.5C 368.742,773.976 358.075,772.642 347.5,770.5 Z"/></g>
<g><path style="opacity:0.451" fill="#f8a79b" d="M 447.5,771.5 C 447.5,771.833 447.5,772.167 447.5,772.5C 444.609,773.403 441.609,773.736 438.5,773.5C 437.5,773.5 436.5,773.5 435.5,773.5C 435.5,773.167 435.5,772.833 435.5,772.5C 439.5,772.167 443.5,771.833 447.5,771.5 Z"/></g>
<g><path style="opacity:0.212" fill="#fbcabb" d="M 435.5,773.5 C 436.5,773.5 437.5,773.5 438.5,773.5C 425.702,775.02 412.702,775.687 399.5,775.5C 390.327,775.5 381.327,775.166 372.5,774.5C 374.833,774.5 377.167,774.5 379.5,774.5C 398.173,774.463 416.84,774.129 435.5,773.5 Z"/></g>
</svg>
