<?xml version="1.0" encoding="iso-8859-1"?>
<!-- Uploaded to: SVG Repo, www.svgrepo.com, Generator: SVG Repo Mixer Tools -->
<svg version="1.1" id="Layer_1" xmlns="http://www.w3.org/2000/svg" xmlns:xlink="http://www.w3.org/1999/xlink" 
	 viewBox="0 0 471.829 471.829" xml:space="preserve">
<g>
	<g>
		<rect x="213.791" y="139.939" style="fill:#EA4262;" width="97.495" height="19"/>
		<path style="fill:#1691B7;" d="M223.291,26.445v148.124c0,31.5,14.558,60.991,39.248,80.136
			c24.69-19.146,39.248-48.636,39.248-80.136V26.445h19v148.124c0,38.303-18.135,74.091-48.748,96.758v139.099h-19V271.327
			c-30.613-22.668-48.748-58.456-48.748-96.758V26.445H223.291z"/>
		<path style="fill:#EA4262;" d="M195.973,0h133.131c7.839,0,14.193,6.355,14.193,14.193l0,0c0,7.839-6.355,14.193-14.193,14.193
			H195.973c-7.839,0-14.193-6.355-14.193-14.193l0,0C181.78,6.355,188.134,0,195.973,0z"/>
		<path style="fill:#EA4262;" d="M246.414,448.457h32.248V418.93c0-4.697-3.807-8.504-8.504-8.504h-15.24
			c-4.697,0-8.504,3.807-8.504,8.504L246.414,448.457L246.414,448.457z"/>
	</g>
	<g>
		<rect x="160.543" y="163.311" style="fill:#FF5069;" width="97.495" height="19"/>
		<path style="fill:#22A1D3;" d="M170.043,49.817v148.124c0,31.5,14.558,60.991,39.248,80.136
			c24.69-19.146,39.248-48.636,39.248-80.136V49.817h19v148.124c0,38.303-18.135,74.091-48.748,96.758v139.099h-19V294.699
			c-30.613-22.668-48.748-58.456-48.748-96.758V49.817H170.043z"/>
		<path style="fill:#FF5069;" d="M142.725,23.372h133.131c7.839,0,14.193,6.355,14.193,14.193l0,0
			c0,7.839-6.354,14.193-14.193,14.193H142.725c-7.839,0-14.193-6.355-14.193-14.193l0,0
			C128.532,29.727,134.887,23.372,142.725,23.372z"/>
		<path style="fill:#FF5069;" d="M193.167,471.829h32.248v-29.527c0-4.697-3.807-8.504-8.504-8.504h-15.24
			c-4.697,0-8.504,3.807-8.504,8.504V471.829z"/>
	</g>
</g>
</svg>