<?xml version="1.0" encoding="iso-8859-1"?>
<!-- Uploaded to: SVG Repo, www.svgrepo.com, Generator: SVG Repo Mixer Tools -->
<svg height="800px" width="800px" version="1.1" id="Layer_1" xmlns="http://www.w3.org/2000/svg" xmlns:xlink="http://www.w3.org/1999/xlink" 
	 viewBox="0 0 508.632 508.632" xml:space="preserve">
<path style="fill:#ECF0F1;" d="M5.389,503.242L5.389,503.242c-7.186-7.186-7.186-17.965,0-25.151l9.881-9.881
	c9.881-10.779,17.067-23.354,18.863-37.726s8.982-27.846,18.863-37.726L309.895,135.86l63.775,63.775l-256.898,256
	c-9.881,9.881-23.354,17.067-37.726,18.863l0,0c-14.372,1.797-27.846,8.982-37.726,18.863l-9.881,9.881
	C24.253,510.428,12.575,510.428,5.389,503.242"/>
<path style="fill:#687492;" d="M443.733,267.902l18.863-18.863c24.253-24.253,24.253-64.674,0-88.926l-6.288-6.288l31.439-31.439
	c27.846-27.846,27.846-73.656,0-101.502c-27.846-27.846-73.656-27.846-101.502,0l-31.439,31.439l-6.288-6.288
	c-24.253-24.253-64.674-24.253-88.926,0L240.73,64.898L443.733,267.902z"/>
<path style="fill:#8697CB;" d="M392.533,71.186c-2.695,0-4.491-0.898-6.288-2.695c-3.593-3.593-3.593-8.982,0-12.575l17.965-17.965
	c9.881-9.881,23.354-11.677,33.235-11.677c9.881,0,23.354,1.796,33.235,11.677c3.593,3.593,3.593,8.982,0,12.575
	c-3.593,3.593-8.982,3.593-12.575,0c-5.389-5.389-15.27-6.288-20.66-6.288c-5.389,0-15.27,0.898-20.66,6.288l-17.965,17.965
	C397.025,70.288,395.228,71.186,392.533,71.186z"/>
<path style="fill:#B0D3F0;" d="M104.197,340.66l-51.2,51.2c-9.881,9.881-17.067,23.354-18.863,37.726
	c-1.796,14.372-8.982,27.846-18.863,37.726l-9.881,9.881c-7.186,7.186-7.186,17.965,0,25.151c7.186,7.186,17.965,7.186,25.151,0
	l9.881-8.982c10.779-9.881,23.354-17.067,37.726-18.863l0,0c14.372-1.797,27.846-8.982,37.726-18.863L231.747,340.66H104.197z"/>
</svg>