<?xml version="1.0" encoding="iso-8859-1"?>
<!-- Uploaded to: SVG Repo, www.svgrepo.com, Generator: SVG Repo Mixer Tools -->
<svg version="1.1" id="Layer_1" xmlns="http://www.w3.org/2000/svg" xmlns:xlink="http://www.w3.org/1999/xlink" 
	 viewBox="0 0 508 508" xml:space="preserve">
<path style="fill:#64B5F6;" d="M154.4,176.8V156H130c-0.4,0-1.2,0.4-1.6,0l-66.8-26.8l-16.4-6.4c-0.4,0-1.6-0.4-2-0.4l-13.6-5.2
	v59.2C30,176.8,154.4,176.8,154.4,176.8z"/>
<g>
	<path style="fill:#BCAAA4;" d="M88.8,360c-14.4,0-26,11.6-26,26s11.6,26,26,26s26-11.6,26-26S103.2,360,88.8,360z"/>
	<path style="fill:#BCAAA4;" d="M422.8,412.8c14.8,0,27.6-12,27.6-26.8s-13.2-26.8-28-26.8c-13.6,0-23.2,10-28,22.8v8
		C399.2,402.8,409.2,412.8,422.8,412.8z"/>
</g>
<path style="fill:#616161;" d="M118,390h276.4c0,0-0.4-3.6-0.4-5.6s0,0,0.4-5.6H118V390z"/>
<polygon style="fill:#78909C;" points="50,206.8 50,220.8 456.8,220.8 456.8,206.8 155.6,206.8 "/>
<g>
	<path style="fill:#EEEEEE;" d="M88.4,381.6c-2,0-4,2-4,4c0,2.4,2,4.4,4.4,4.4c1.2,0,2.4-0.4,3.2-1.6c0.4-0.4,0.8-1.2,0.8-2.4
		C92.8,382.8,89.6,382,88.4,381.6z"/>
	<path style="fill:#EEEEEE;" d="M422.8,390.4c1.6,0,3.2-0.8,4.4-2c0.8-0.8,1.6-2,1.2-3.6c-0.4-5.2-4-6.4-6-6.4c-3.2,0-6,2.8-6,6
		C416.8,387.6,419.2,390.4,422.8,390.4z"/>
</g>
<g>
	<path style="fill:#BCAAA4;" d="M30.4,180.8c-1.6,0-3.6-0.8-3.6-1.6v-71.6c0-5.6-4.4-10-10-10s-10,4.4-10,10v83.6
		c0,5.6,6,9.2,11.6,9.2h136.4v-20L30.4,180.8L30.4,180.8z"/>
	<path style="fill:#BCAAA4;" d="M482,204.4h11.6c5.6,0,7.6-3.2,7.6-7.6v-88c0-4.8-4.4-8.4-9.6-8.4s-9.6,3.6-9.6,8.4v50.4v25.2
		C482,184,482,204.4,482,204.4z"/>
</g>
<path style="fill:#EEEEEE;" d="M117.6,146.8c4.4,1.6,9.6-0.4,11.6-4.8c0.8-2,0.8-4.4,0-6.8c-0.8-2-2.8-4-4.8-4.8l-69.6-27.6
	c-1.2-0.4-2-0.8-3.2-0.8c-3.6,0-6.8,2-8.4,5.6c-1.6,4,0,8.8,4,10.8l18,7.2L117.6,146.8z"/>
<path style="fill:#2E7D32;" d="M63.2,126l-16-6.4c0.4,0,0.4,0.4,0.8,0.4L63.2,126z"/>
<rect x="158" y="158.8" style="fill:#B2DFDB;" width="320" height="21.6"/>
<polygon style="fill:#64B5F6;" points="464,202.4 478,202.4 478,180.4 158,180.4 158,202.4 "/>
<path d="M88.8,416.8c-17.6,0-31.6-14.4-31.6-31.6s14.4-31.6,31.6-31.6s31.6,14.4,31.6,31.6S106.4,416.8,88.8,416.8z M88.8,361.2
	c-13.2,0-23.6,10.8-23.6,23.6s10.8,23.6,23.6,23.6s23.6-10.8,23.6-23.6S102,361.2,88.8,361.2z"/>
<path d="M422.4,416.8c-17.6,0-31.6-14.4-31.6-31.6s14.4-31.6,31.6-31.6S454,368,454,385.2S440,416.8,422.4,416.8z M422.4,361.2
	c-13.2,0-23.6,10.8-23.6,23.6s10.8,23.6,23.6,23.6s23.6-10.8,23.6-23.6S435.6,361.2,422.4,361.2z"/>
<path d="M394,380H118c-2.4,0-4-1.6-4-4s1.6-4,4-4h276c2.4,0,4,1.6,4,4S396.4,380,394,380z"/>
<path d="M394,396H118c-2.4,0-4-1.6-4-4s1.6-4,4-4h276c2.4,0,4,1.6,4,4S396.4,396,394,396z"/>
<path d="M110.4,370.8c-1.6,0-2.8-0.8-3.6-2.4c-0.8-2,0-4.4,2-5.2l306.8-145.6c2-0.8,4.4,0,5.2,2s0,4.4-2,5.2L112,370.4
	C111.6,370.8,110.8,370.8,110.4,370.8z"/>
<path d="M400.4,370.8c-0.4,0-1.2,0-1.6-0.4l-308-146c-2-0.8-2.8-3.2-2-5.2s3.2-2.8,5.2-2l308,146c2,0.8,2.8,3.2,2,5.2
	C403.2,369.6,401.6,370.8,400.4,370.8z"/>
<path d="M460,224H48c-2.4,0-4-1.6-4-4v-14c0-2.4,1.6-4,4-4s4,1.6,4,4v10h404v-10c0-2.4,1.6-4,4-4s4,1.6,4,4v14
	C464,222.4,462.4,224,460,224z"/>
<path d="M88.8,397.2c-6.8,0-12-5.6-12-12c0-6.8,5.6-12,12-12c2.4,0,4,1.6,4,4s-1.6,4-4,4s-4,2-4,4s2,4,4,4c2.4,0,4-2,4-4
	c0-2.4,1.6-4,4-4s4,1.6,4,4C101.2,391.6,95.6,397.2,88.8,397.2z"/>
<path d="M422.4,397.2c-6.8,0-12-5.6-12-12c0-6.8,5.6-12,12-12c2.4,0,4,1.6,4,4s-1.6,4-4,4s-4,2-4,4s2,4,4,4s4-2,4-4c0-2.4,1.6-4,4-4
	s4,1.6,4,4C434.4,391.6,429.2,397.2,422.4,397.2z"/>
<path d="M493.6,208h-476C8.8,208,0,199.6,0,190.8v-83.6c0-8.8,7.2-16,16-16s16,7.2,16,16V176h122c2.4,0,4,1.6,4,4s-1.6,4-4,4H28
	c-2.4,0-4-1.6-4-4v-72.8c0-4.4-3.6-8-8-8s-8,3.6-8,8v83.6c0,4.4,5.2,9.2,9.6,9.2h476c4.4,0,6.4-5.6,6.4-9.2v-83.6c0-4.4-3.6-8-8-8
	s-8,3.6-8,8V178c0,2.4-1.6,4-4,4s-4-1.6-4-4v-70.8c0-8.8,7.2-16,16-16s16,7.2,16,16v83.6C508,199.2,502.8,208,493.6,208z"/>
<path d="M478,160H128.4c-0.4,0-1.2,0-1.6-0.4L27.6,120c-2-0.8-3.2-3.2-2.4-5.2s3.2-3.2,5.2-2.4l98.4,39.2h348.8c2.4,0,4,1.6,4,4
	S480.4,160,478,160z"/>
<path d="M115.6,152.4c-2,0-4-0.4-6-1.2l-62.8-24.8c-8-3.2-12-12.4-8.8-20.8c3.2-8,12.4-12,20.8-8.8l62.8,24.8
	c8,3.2,12,12.4,8.8,20.8C128,148.4,122,152.4,115.6,152.4z M52.8,103.6c-3.2,0-6,2-7.2,5.2c-1.6,4,0.4,8.8,4.4,10.4l62.8,24.8l0,0
	c4,1.6,8.8-0.4,10.4-4.4c1.6-4-0.4-8.8-4.4-10.4L56,104.4C54.8,104,53.6,103.6,52.8,103.6z"/>
<path d="M480,208H156c-2.4,0-4-1.6-4-4v-48c0-2.4,1.6-4,4-4h324c2.4,0,4,1.6,4,4v48C484,206.4,482.4,208,480,208z M160,200h316v-40
	H160V200z"/>
</svg>