<?xml version="1.0" encoding="iso-8859-1"?>
<!-- Uploaded to: SVG Repo, www.svgrepo.com, Generator: SVG Repo Mixer Tools -->
<svg version="1.1" id="Layer_1" xmlns="http://www.w3.org/2000/svg" xmlns:xlink="http://www.w3.org/1999/xlink" 
	 viewBox="0 0 504 504" xml:space="preserve">
<g>
	<path style="fill:#78909C;" d="M262,86.4c0-0.8,0.4-3.2,0.4-3.2H248v23.6h14.8c-0.8-4-1.2-8.8-1.2-13.6
		C261.6,92.8,261.6,90.8,262,86.4z"/>
	<rect x="192.4" y="122.4" style="fill:#78909C;" width="51.2" height="83.2"/>
</g>
<path style="fill:#FFCDD2;" d="M136,296.4c0-0.4,0.4-0.8,0.4-1.2C136,295.2,136,296,136,296.4z"/>
<path style="fill:#E0F2F1;" d="M264.4,246l0.4-0.8h-87.2c-0.8,0-2,0.4-2-0.4c-23.2,15.6-38,42.4-38,68.4V494h162V312.8
	C299.2,285.2,286.8,260,264.4,246z"/>
<g>
	<path style="fill:#FFCDD2;" d="M134.4,307.6c0-0.8,0-1.6,0.4-2.4C134.4,306,134.4,306.8,134.4,307.6z"/>
	<path style="fill:#FFCDD2;" d="M134,502v2h2C134.8,504,134,503.2,134,502z"/>
</g>
<path style="fill:#E0E0E0;" d="M180,241.6c0,0,0.4-0.4,0,3.6h78c0-4-0.8-3.2-0.8-3.2c-0.8-0.4-1.6-0.4-1.6-1.2v-31.2h-75.2v31.2
	C180.8,241.6,180.8,241.2,180,241.6z"/>
<path style="fill:#FFCDD2;" d="M134.8,302c0-0.8,0.4-1.6,0.4-2.4C135.2,300.4,134.8,301.2,134.8,302z"/>
<path style="fill:#EEEEEE;" d="M163.6,94.8c0,13.2,10.8,23.6,23.6,23.6h56.4V70.8h-56.4C174.4,71.2,163.6,82,163.6,94.8z"/>
<path style="fill:#FFCDD2;" d="M187.6,124c-0.8,0-1.6,0-2.8,0C185.6,123.6,186.4,124,187.6,124z"/>
<polyline style="fill:#E0E0E0;" points="338.8,4 338.8,186 366.4,186 366.4,4 "/>
<path style="fill:#BCAAA4;" d="M338.8,11.6c-35.6,3.6-67.2,33.6-72.8,70l0.4,0.4c0,0.4,0,0.8,0,0.8c0,1.2-0.4,2.4-0.4,4
	c-0.4,5.2-1.2,6.8-1.2,7.2c0,42.8,34.4,78.4,74,82.4V11.6"/>
<path style="fill:#FFCDD2;" d="M340,189.2v2h2C340.8,191.2,340,190.4,340,189.2z"/>
<path d="M190.4,209.6c-2.4,0-4-1.6-4-4v-83.2c0-2.4,1.6-4,4-4s4,1.6,4,4v83.2C194.4,207.6,192.8,209.6,190.4,209.6z"/>
<path d="M246,209.6c-2.4,0-4-1.6-4-4v-86.8c0-2.4,1.6-4,4-4s4,1.6,4,4v86.8C250,207.6,248,209.6,246,209.6z"/>
<path d="M301.2,496h-166c-2.4,0-4-1.6-4-4V312.8c0-28.8,16.8-58,43.6-74.4v-30.8c0-2.4,1.6-4,4-4H258c2.4,0,4,1.6,4,4v30.8
	c27.2,14.8,43.6,42.4,43.6,74.8v179.2C305.2,494.4,303.6,496,301.2,496z M139.2,488h158V312.8c0-30-15.6-55.6-41.2-68.8
	c-1.2-0.8-2-2-2-3.6v-29.2h-71.2v29.2c0,1.6-0.8,2.8-2,3.6c-25.2,14.8-41.6,42-41.6,68.8V488z"/>
<path d="M224,247.2h-47.6c-2.4,0-4-1.6-4-4s1.6-4,4-4H224c2.4,0,4,1.6,4,4S226.4,247.2,224,247.2z"/>
<path d="M259.6,247.2h-12c-2.4,0-4-1.6-4-4s1.6-4,4-4h12c2.4,0,4,1.6,4,4S262,247.2,259.6,247.2z"/>
<path d="M246,124.8h-58.4c-16.4,0-29.6-13.2-29.6-29.6s13.2-29.6,29.6-29.6H246c2.4,0,4,1.6,4,4v51.2C250,122.8,248,124.8,246,124.8
	z M187.6,73.2c-12,0-21.6,9.6-21.6,21.6s9.6,21.6,21.6,21.6H242V73.2H187.6z"/>
<path d="M368.4,191.6h-27.6c-2.4,0-4-1.6-4-4V182c-44-4.8-78-42.8-78-88c0-0.8,0-1.6,0.4-4c0.4-1.2,0.4-2.8,0.4-3.6
	c3.6-44.4,34.8-77.2,75.6-80c2,0,4,1.6,4.4,3.6c0,2.4-1.6,4-3.6,4.4c-36.8,2.4-64.4,32.4-68,72.8c0,0.8-0.4,2.4-0.4,4
	c0,1.2-0.4,2.4-0.4,2.8c0,42.4,32.8,77.6,74.4,80.4c2,0,3.6,2,3.6,4v5.2h19.6V4c0-2.4,1.6-4,4-4s4,1.6,4,4v183.6
	C372.4,190,370.8,191.6,368.4,191.6z"/>
<path d="M340.8,190c-2.4,0-4-1.6-4-4V55.6c0-2.4,1.6-4,4-4s4,1.6,4,4V186C344.8,188,342.8,190,340.8,190z"/>
<path d="M340.8,27.6c-2.4,0-4-1.6-4-4V4c0-2.4,1.6-4,4-4s4,1.6,4,4v19.6C344.8,26,342.8,27.6,340.8,27.6z"/>
<path d="M263.6,112.8h-16c-2.4,0-4-1.6-4-4s1.6-4,4-4h16c2.4,0,4,1.6,4,4S266,112.8,263.6,112.8z"/>
<path d="M259.6,85.2h-12c-2.4,0-4-1.6-4-4s1.6-4,4-4h12c2.4,0,4,1.6,4,4S262,85.2,259.6,85.2z"/>
<path d="M366.4,8h-25.6c-2.4,0-4-1.6-4-4s1.6-4,4-4h25.6c2.4,0,4,1.6,4,4S368.8,8,366.4,8z"/>
</svg>