<?xml version="1.0" encoding="iso-8859-1"?>
<!-- Uploaded to: SVG Repo, www.svgrepo.com, Generator: SVG Repo Mixer Tools -->
<svg height="800px" width="800px" version="1.1" id="Layer_1" xmlns="http://www.w3.org/2000/svg" xmlns:xlink="http://www.w3.org/1999/xlink" 
	 viewBox="0 0 503.467 503.467" xml:space="preserve">
<g transform="translate(1 11)">
	<path style="fill:#AAB1BA;" d="M464.067,419.933c18.773,0,34.133,15.36,34.133,34.133S482.84,488.2,464.067,488.2
		c-18.773,0-34.133-15.36-34.133-34.133S445.293,419.933,464.067,419.933"/>
	<path style="fill:#ECF4F7;" d="M464.067,249.267v17.067H319l-2.56,0.853c-7.68-19.627-18.773-36.693-32.427-51.2l0.853-0.853
		h145.067C448.707,215.133,464.067,230.493,464.067,249.267z M327.533,112.733V129.8H139.8V78.6h153.6
		C312.173,78.6,327.533,93.96,327.533,112.733z"/>
	<path style="fill:#AAB1BA;" d="M316.44,267.187c6.827,17.92,11.093,38.4,11.093,58.88c0,89.6-72.533,162.133-162.133,162.133
		S3.267,415.667,3.267,326.067S75.8,163.933,165.4,163.933c46.933,0,88.747,19.627,118.613,52.053
		C297.667,230.493,308.76,248.413,316.44,267.187 M74.947,416.52c23.04,23.04,55.467,37.547,90.453,37.547
		s67.413-14.507,90.453-37.547c23.04-23.04,37.547-55.467,37.547-90.453s-14.507-67.413-37.547-90.453s-55.467-37.547-90.453-37.547
		s-67.413,14.507-90.453,37.547C51.907,258.653,37.4,291.08,37.4,326.067S51.907,393.48,74.947,416.52"/>
	<path style="fill:#FF7474;" d="M165.4,266.333c33.28,0,59.733,26.453,59.733,59.733S198.68,385.8,165.4,385.8
		s-59.733-26.453-59.733-59.733S132.12,266.333,165.4,266.333"/>
</g>
<path style="fill:#51565F;" d="M465.067,503.467c-21.333,0-38.4-17.067-38.4-38.4c0-19.627,15.36-35.84,34.133-38.4V281.6H349.867
	c-2.56,0-4.267-1.707-4.267-4.267s1.707-4.267,4.267-4.267H460.8v-12.8c0-16.213-13.653-29.867-29.867-29.867H325.12
	c-2.56,0-4.267-1.707-4.267-4.267s1.707-4.267,4.267-4.267h105.813c21.333,0,38.4,17.067,38.4,38.4v166.4
	c18.773,2.56,34.133,18.773,34.133,38.4C503.467,486.4,486.4,503.467,465.067,503.467z M460.8,435.2
	c-14.507,1.707-25.6,14.507-25.6,29.867c0,16.213,13.653,29.867,29.867,29.867c16.213,0,29.867-13.653,29.867-29.867
	c0-15.36-11.093-27.307-25.6-29.867v29.867c0,2.56-1.707,4.267-4.267,4.267s-4.267-1.707-4.267-4.267V435.2z M166.4,503.467
	c-92.16,0-166.4-74.24-166.4-166.4s74.24-166.4,166.4-166.4s166.4,74.24,166.4,166.4S258.56,503.467,166.4,503.467z M166.4,179.2
	c-87.04,0-157.867,70.827-157.867,157.867S79.36,494.933,166.4,494.933s157.867-70.827,157.867-157.867S253.44,179.2,166.4,179.2z
	 M166.4,469.333c-35.84,0-69.12-14.507-93.013-38.4c0,0,0,0-0.853-0.853c-0.853-0.853,0,0-0.853-0.853
	c-23.893-23.893-38.4-57.173-38.4-93.013c0-35.84,14.507-69.12,38.4-93.013c0,0,0,0,0.853-0.853c0.853-0.853,0,0,0.853-0.853
	c23.893-23.893,57.173-38.4,93.013-38.4c35.84,0,69.12,14.507,93.013,38.4c0,0,0,0,0.853,0.853c0.853,0.853,0,0,0.853,0.853
	c23.893,23.893,38.4,57.173,38.4,93.013c0,35.84-14.507,69.12-38.4,93.013c0,0,0,0-0.853,0.853c-0.853,0.853,0,0-0.853,0.853
	C235.52,454.827,202.24,469.333,166.4,469.333z M81.92,427.52c22.187,20.48,52.053,33.28,84.48,33.28s62.293-12.8,84.48-33.28
	l-9.387-9.387c-0.853-0.853-0.853-1.707-0.853-3.413s0-2.56,0.853-3.413c1.707-1.707,4.267-1.707,5.973,0l9.387,9.387
	c20.48-22.187,33.28-52.053,33.28-84.48s-12.8-62.293-33.28-84.48l-9.387,8.533c-1.707,1.707-4.267,1.707-5.973,0
	c-0.853-0.853-0.853-1.707-0.853-3.413s0-2.56,0.853-3.413l9.387-8.533c-22.187-20.48-52.053-33.28-84.48-33.28
	s-62.293,12.8-84.48,33.28l8.533,8.533c0.853,0.853,0.853,1.707,0.853,3.413s0,2.56-0.853,3.413c-1.707,1.707-4.267,1.707-5.973,0
	l-8.533-9.387c-20.48,22.187-33.28,52.053-33.28,84.48s12.8,62.293,33.28,84.48l9.387-9.387c1.707-1.707,4.267-1.707,5.973,0
	c0.853,0.853,0.853,1.707,0.853,3.413s0,2.56-0.853,3.413L81.92,427.52z M166.4,401.067c-34.987,0-64-29.013-64-64s29.013-64,64-64
	s64,29.013,64,64S201.387,401.067,166.4,401.067z M166.4,281.6c-30.72,0-55.467,24.747-55.467,55.467s24.747,55.467,55.467,55.467
	s55.467-24.747,55.467-55.467S197.12,281.6,166.4,281.6z M140.8,153.6c-2.56,0-4.267-1.707-4.267-4.267v-58.88l-32.427-81.92h-48.64
	c-2.56,0-4.267-1.707-4.267-4.267S52.907,0,55.467,0h51.2c1.707,0,3.413,0.853,4.267,2.56l33.28,82.773h151.04
	c21.333,0,38.4,17.067,38.4,38.4V140.8c0,2.56-1.707,4.267-4.267,4.267h-153.6c-2.56,0-4.267-1.707-4.267-4.267
	c0-2.56,1.707-4.267,4.267-4.267H325.12v-12.8c0-16.213-13.653-29.867-29.867-29.867H145.92v55.467
	C145.067,151.893,143.36,153.6,140.8,153.6z"/>
</svg>